<mxfile host="Electron" agent="Mozilla/5.0 (Windows NT 10.0; Win64; x64) AppleWebKit/537.36 (KHTML, like Gecko) draw.io/25.0.2 Chrome/128.0.6613.186 Electron/32.2.5 Safari/537.36" version="25.0.2">
  <diagram name="Page-1" id="ownZ3x-sX1TWKuZHaSBG">
    <mxGraphModel dx="1687" dy="1593" grid="0" gridSize="10" guides="1" tooltips="1" connect="1" arrows="1" fold="1" page="1" pageScale="1" pageWidth="300" pageHeight="600" background="#FFD966" math="0" shadow="0">
      <root>
        <mxCell id="0" />
        <mxCell id="1" parent="0" />
        <mxCell id="zV2Yj9LvBtoQlZ7fJhB_-123" value="" style="group;fillColor=default;" parent="1" vertex="1" connectable="0">
          <mxGeometry x="6" y="-494" width="260" height="210" as="geometry" />
        </mxCell>
        <mxCell id="zV2Yj9LvBtoQlZ7fJhB_-92" value="users" style="shape=table;startSize=30;container=1;collapsible=1;childLayout=tableLayout;fixedRows=1;rowLines=0;fontStyle=1;align=center;resizeLast=1;html=1;" parent="zV2Yj9LvBtoQlZ7fJhB_-123" vertex="1">
          <mxGeometry x="1" width="259" height="210" as="geometry" />
        </mxCell>
        <mxCell id="zV2Yj9LvBtoQlZ7fJhB_-93" value="" style="shape=tableRow;horizontal=0;startSize=0;swimlaneHead=0;swimlaneBody=0;fillColor=none;collapsible=0;dropTarget=0;points=[[0,0.5],[1,0.5]];portConstraint=eastwest;top=0;left=0;right=0;bottom=1;" parent="zV2Yj9LvBtoQlZ7fJhB_-92" vertex="1">
          <mxGeometry y="30" width="259" height="30" as="geometry" />
        </mxCell>
        <mxCell id="zV2Yj9LvBtoQlZ7fJhB_-94" value="PK" style="shape=partialRectangle;connectable=0;fillColor=none;top=0;left=0;bottom=0;right=0;fontStyle=1;overflow=hidden;whiteSpace=wrap;html=1;" parent="zV2Yj9LvBtoQlZ7fJhB_-93" vertex="1">
          <mxGeometry width="30" height="30" as="geometry">
            <mxRectangle width="30" height="30" as="alternateBounds" />
          </mxGeometry>
        </mxCell>
        <mxCell id="zV2Yj9LvBtoQlZ7fJhB_-95" value="userID&lt;span style=&quot;white-space: pre;&quot;&gt;&#x9;&lt;/span&gt;&lt;span style=&quot;white-space: pre;&quot;&gt;&#x9;&lt;/span&gt;char(24)" style="shape=partialRectangle;connectable=0;fillColor=none;top=0;left=0;bottom=0;right=0;align=left;spacingLeft=6;fontStyle=5;overflow=hidden;whiteSpace=wrap;html=1;" parent="zV2Yj9LvBtoQlZ7fJhB_-93" vertex="1">
          <mxGeometry x="30" width="229" height="30" as="geometry">
            <mxRectangle width="229" height="30" as="alternateBounds" />
          </mxGeometry>
        </mxCell>
        <mxCell id="zV2Yj9LvBtoQlZ7fJhB_-96" value="" style="shape=tableRow;horizontal=0;startSize=0;swimlaneHead=0;swimlaneBody=0;fillColor=none;collapsible=0;dropTarget=0;points=[[0,0.5],[1,0.5]];portConstraint=eastwest;top=0;left=0;right=0;bottom=0;" parent="zV2Yj9LvBtoQlZ7fJhB_-92" vertex="1">
          <mxGeometry y="60" width="259" height="30" as="geometry" />
        </mxCell>
        <mxCell id="zV2Yj9LvBtoQlZ7fJhB_-97" value="" style="shape=partialRectangle;connectable=0;fillColor=none;top=0;left=0;bottom=0;right=0;editable=1;overflow=hidden;whiteSpace=wrap;html=1;" parent="zV2Yj9LvBtoQlZ7fJhB_-96" vertex="1">
          <mxGeometry width="30" height="30" as="geometry">
            <mxRectangle width="30" height="30" as="alternateBounds" />
          </mxGeometry>
        </mxCell>
        <mxCell id="zV2Yj9LvBtoQlZ7fJhB_-98" value="active&lt;span style=&quot;white-space: pre;&quot;&gt;&#x9;&lt;/span&gt;&lt;span style=&quot;white-space: pre;&quot;&gt;&#x9;&lt;/span&gt;bool" style="shape=partialRectangle;connectable=0;fillColor=none;top=0;left=0;bottom=0;right=0;align=left;spacingLeft=6;overflow=hidden;whiteSpace=wrap;html=1;" parent="zV2Yj9LvBtoQlZ7fJhB_-96" vertex="1">
          <mxGeometry x="30" width="229" height="30" as="geometry">
            <mxRectangle width="229" height="30" as="alternateBounds" />
          </mxGeometry>
        </mxCell>
        <mxCell id="zV2Yj9LvBtoQlZ7fJhB_-99" value="" style="shape=tableRow;horizontal=0;startSize=0;swimlaneHead=0;swimlaneBody=0;fillColor=none;collapsible=0;dropTarget=0;points=[[0,0.5],[1,0.5]];portConstraint=eastwest;top=0;left=0;right=0;bottom=0;" parent="zV2Yj9LvBtoQlZ7fJhB_-92" vertex="1">
          <mxGeometry y="90" width="259" height="30" as="geometry" />
        </mxCell>
        <mxCell id="zV2Yj9LvBtoQlZ7fJhB_-100" value="" style="shape=partialRectangle;connectable=0;fillColor=none;top=0;left=0;bottom=0;right=0;editable=1;overflow=hidden;whiteSpace=wrap;html=1;" parent="zV2Yj9LvBtoQlZ7fJhB_-99" vertex="1">
          <mxGeometry width="30" height="30" as="geometry">
            <mxRectangle width="30" height="30" as="alternateBounds" />
          </mxGeometry>
        </mxCell>
        <mxCell id="zV2Yj9LvBtoQlZ7fJhB_-101" value="createdDate&lt;span style=&quot;white-space: pre;&quot;&gt;&#x9;&lt;/span&gt;datetime" style="shape=partialRectangle;connectable=0;fillColor=none;top=0;left=0;bottom=0;right=0;align=left;spacingLeft=6;overflow=hidden;whiteSpace=wrap;html=1;" parent="zV2Yj9LvBtoQlZ7fJhB_-99" vertex="1">
          <mxGeometry x="30" width="229" height="30" as="geometry">
            <mxRectangle width="229" height="30" as="alternateBounds" />
          </mxGeometry>
        </mxCell>
        <mxCell id="zV2Yj9LvBtoQlZ7fJhB_-102" value="" style="shape=tableRow;horizontal=0;startSize=0;swimlaneHead=0;swimlaneBody=0;fillColor=none;collapsible=0;dropTarget=0;points=[[0,0.5],[1,0.5]];portConstraint=eastwest;top=0;left=0;right=0;bottom=0;" parent="zV2Yj9LvBtoQlZ7fJhB_-92" vertex="1">
          <mxGeometry y="120" width="259" height="30" as="geometry" />
        </mxCell>
        <mxCell id="zV2Yj9LvBtoQlZ7fJhB_-103" value="" style="shape=partialRectangle;connectable=0;fillColor=none;top=0;left=0;bottom=0;right=0;editable=1;overflow=hidden;whiteSpace=wrap;html=1;" parent="zV2Yj9LvBtoQlZ7fJhB_-102" vertex="1">
          <mxGeometry width="30" height="30" as="geometry">
            <mxRectangle width="30" height="30" as="alternateBounds" />
          </mxGeometry>
        </mxCell>
        <mxCell id="zV2Yj9LvBtoQlZ7fJhB_-104" value="lastLogin&lt;span style=&quot;white-space: pre;&quot;&gt;&#x9;&lt;/span&gt;&lt;span style=&quot;white-space: pre;&quot;&gt;&#x9;&lt;/span&gt;datetime" style="shape=partialRectangle;connectable=0;fillColor=none;top=0;left=0;bottom=0;right=0;align=left;spacingLeft=6;overflow=hidden;whiteSpace=wrap;html=1;" parent="zV2Yj9LvBtoQlZ7fJhB_-102" vertex="1">
          <mxGeometry x="30" width="229" height="30" as="geometry">
            <mxRectangle width="229" height="30" as="alternateBounds" />
          </mxGeometry>
        </mxCell>
        <mxCell id="zV2Yj9LvBtoQlZ7fJhB_-105" value="" style="shape=partialRectangle;connectable=0;fillColor=none;top=0;left=0;bottom=0;right=0;editable=1;overflow=hidden;whiteSpace=wrap;html=1;" parent="zV2Yj9LvBtoQlZ7fJhB_-123" vertex="1">
          <mxGeometry y="149" width="30" height="30" as="geometry">
            <mxRectangle width="30" height="30" as="alternateBounds" />
          </mxGeometry>
        </mxCell>
        <mxCell id="zV2Yj9LvBtoQlZ7fJhB_-106" value="role&lt;span style=&quot;white-space: pre;&quot;&gt;&#x9;&lt;/span&gt;&lt;span style=&quot;white-space: pre;&quot;&gt;&#x9;&lt;/span&gt;&lt;span style=&quot;white-space: pre;&quot;&gt;&#x9;&lt;/span&gt;string &lt;font style=&quot;font-size: 7px;&quot;&gt;(could be a fk to Roles table)&lt;/font&gt;" style="shape=partialRectangle;connectable=0;fillColor=none;top=0;left=0;bottom=0;right=0;align=left;spacingLeft=6;overflow=hidden;whiteSpace=wrap;html=1;" parent="zV2Yj9LvBtoQlZ7fJhB_-123" vertex="1">
          <mxGeometry x="30" y="149" width="220" height="30" as="geometry">
            <mxRectangle width="150" height="30" as="alternateBounds" />
          </mxGeometry>
        </mxCell>
        <mxCell id="zV2Yj9LvBtoQlZ7fJhB_-107" value="" style="shape=partialRectangle;connectable=0;fillColor=none;top=0;left=0;bottom=0;right=0;editable=1;overflow=hidden;whiteSpace=wrap;html=1;" parent="zV2Yj9LvBtoQlZ7fJhB_-123" vertex="1">
          <mxGeometry y="179" width="30" height="30" as="geometry">
            <mxRectangle width="30" height="30" as="alternateBounds" />
          </mxGeometry>
        </mxCell>
        <mxCell id="zV2Yj9LvBtoQlZ7fJhB_-108" value="signupSource&lt;span style=&quot;white-space: pre;&quot;&gt;&#x9;&lt;/span&gt;string" style="shape=partialRectangle;connectable=0;fillColor=none;top=0;left=0;bottom=0;right=0;align=left;spacingLeft=6;overflow=hidden;whiteSpace=wrap;html=1;" parent="zV2Yj9LvBtoQlZ7fJhB_-123" vertex="1">
          <mxGeometry x="30" y="179" width="150" height="30" as="geometry">
            <mxRectangle width="150" height="30" as="alternateBounds" />
          </mxGeometry>
        </mxCell>
        <mxCell id="zV2Yj9LvBtoQlZ7fJhB_-117" value="" style="line;strokeWidth=1;rotatable=0;dashed=0;labelPosition=right;align=left;verticalAlign=middle;spacingTop=0;spacingLeft=6;points=[];portConstraint=eastwest;direction=south;" parent="zV2Yj9LvBtoQlZ7fJhB_-123" vertex="1">
          <mxGeometry x="20" y="134" width="22" height="75" as="geometry" />
        </mxCell>
        <mxCell id="zV2Yj9LvBtoQlZ7fJhB_-125" value="" style="rounded=0;whiteSpace=wrap;html=1;fillColor=#990099;" parent="1" vertex="1">
          <mxGeometry y="-595" width="1799" height="20" as="geometry" />
        </mxCell>
        <mxCell id="zV2Yj9LvBtoQlZ7fJhB_-197" value="" style="group" parent="1" vertex="1" connectable="0">
          <mxGeometry x="759" y="-512" width="307" height="450" as="geometry" />
        </mxCell>
        <mxCell id="zV2Yj9LvBtoQlZ7fJhB_-21" value="receipt_items" style="shape=table;startSize=30;container=1;collapsible=1;childLayout=tableLayout;fixedRows=1;rowLines=0;fontStyle=1;align=center;resizeLast=1;html=1;whiteSpace=wrap;fillColor=default;" parent="zV2Yj9LvBtoQlZ7fJhB_-197" vertex="1">
          <mxGeometry width="307" height="450" as="geometry" />
        </mxCell>
        <mxCell id="zV2Yj9LvBtoQlZ7fJhB_-22" value="" style="shape=tableRow;horizontal=0;startSize=0;swimlaneHead=0;swimlaneBody=0;fillColor=none;collapsible=0;dropTarget=0;points=[[0,0.5],[1,0.5]];portConstraint=eastwest;top=0;left=0;right=0;bottom=0;html=1;" parent="zV2Yj9LvBtoQlZ7fJhB_-21" vertex="1">
          <mxGeometry y="30" width="307" height="30" as="geometry" />
        </mxCell>
        <mxCell id="zV2Yj9LvBtoQlZ7fJhB_-23" value="PK" style="shape=partialRectangle;connectable=0;fillColor=default;top=0;left=0;bottom=0;right=0;fontStyle=1;overflow=hidden;html=1;whiteSpace=wrap;" parent="zV2Yj9LvBtoQlZ7fJhB_-22" vertex="1">
          <mxGeometry width="60" height="30" as="geometry">
            <mxRectangle width="60" height="30" as="alternateBounds" />
          </mxGeometry>
        </mxCell>
        <mxCell id="zV2Yj9LvBtoQlZ7fJhB_-24" value="item_id" style="shape=partialRectangle;connectable=0;fillColor=default;top=0;left=0;bottom=0;right=0;align=left;spacingLeft=6;fontStyle=5;overflow=hidden;html=1;whiteSpace=wrap;" parent="zV2Yj9LvBtoQlZ7fJhB_-22" vertex="1">
          <mxGeometry x="60" width="247" height="30" as="geometry">
            <mxRectangle width="247" height="30" as="alternateBounds" />
          </mxGeometry>
        </mxCell>
        <mxCell id="zV2Yj9LvBtoQlZ7fJhB_-25" value="" style="shape=tableRow;horizontal=0;startSize=0;swimlaneHead=0;swimlaneBody=0;fillColor=none;collapsible=0;dropTarget=0;points=[[0,0.5],[1,0.5]];portConstraint=eastwest;top=0;left=0;right=0;bottom=1;html=1;" parent="zV2Yj9LvBtoQlZ7fJhB_-21" vertex="1">
          <mxGeometry y="60" width="307" height="30" as="geometry" />
        </mxCell>
        <mxCell id="zV2Yj9LvBtoQlZ7fJhB_-26" value="FK" style="shape=partialRectangle;connectable=0;fillColor=default;top=0;left=0;bottom=0;right=0;fontStyle=1;overflow=hidden;html=1;whiteSpace=wrap;" parent="zV2Yj9LvBtoQlZ7fJhB_-25" vertex="1">
          <mxGeometry width="60" height="30" as="geometry">
            <mxRectangle width="60" height="30" as="alternateBounds" />
          </mxGeometry>
        </mxCell>
        <mxCell id="zV2Yj9LvBtoQlZ7fJhB_-27" value="receipt_id" style="shape=partialRectangle;connectable=0;fillColor=default;top=0;left=0;bottom=0;right=0;align=left;spacingLeft=6;fontStyle=5;overflow=hidden;html=1;whiteSpace=wrap;" parent="zV2Yj9LvBtoQlZ7fJhB_-25" vertex="1">
          <mxGeometry x="60" width="247" height="30" as="geometry">
            <mxRectangle width="247" height="30" as="alternateBounds" />
          </mxGeometry>
        </mxCell>
        <mxCell id="zV2Yj9LvBtoQlZ7fJhB_-28" value="" style="shape=tableRow;horizontal=0;startSize=0;swimlaneHead=0;swimlaneBody=0;fillColor=none;collapsible=0;dropTarget=0;points=[[0,0.5],[1,0.5]];portConstraint=eastwest;top=0;left=0;right=0;bottom=0;html=1;" parent="zV2Yj9LvBtoQlZ7fJhB_-21" vertex="1">
          <mxGeometry y="90" width="307" height="30" as="geometry" />
        </mxCell>
        <mxCell id="zV2Yj9LvBtoQlZ7fJhB_-29" value="" style="shape=partialRectangle;connectable=0;fillColor=default;top=0;left=0;bottom=0;right=0;editable=1;overflow=hidden;html=1;whiteSpace=wrap;" parent="zV2Yj9LvBtoQlZ7fJhB_-28" vertex="1">
          <mxGeometry width="60" height="30" as="geometry">
            <mxRectangle width="60" height="30" as="alternateBounds" />
          </mxGeometry>
        </mxCell>
        <mxCell id="zV2Yj9LvBtoQlZ7fJhB_-30" value="barcode&lt;span style=&quot;white-space: pre;&quot;&gt;&#x9;&lt;span style=&quot;white-space: pre;&quot;&gt;&#x9;&lt;span style=&quot;white-space: pre;&quot;&gt;&#x9;&lt;span style=&quot;white-space: pre;&quot;&gt;&#x9;&lt;span style=&quot;white-space: pre;&quot;&gt;&#x9;&lt;/span&gt;&lt;/span&gt;&lt;/span&gt;&lt;/span&gt;&lt;/span&gt;string" style="shape=partialRectangle;connectable=0;fillColor=default;top=0;left=0;bottom=0;right=0;align=left;spacingLeft=6;overflow=hidden;html=1;whiteSpace=wrap;" parent="zV2Yj9LvBtoQlZ7fJhB_-28" vertex="1">
          <mxGeometry x="60" width="247" height="30" as="geometry">
            <mxRectangle width="247" height="30" as="alternateBounds" />
          </mxGeometry>
        </mxCell>
        <mxCell id="zV2Yj9LvBtoQlZ7fJhB_-31" value="" style="shape=tableRow;horizontal=0;startSize=0;swimlaneHead=0;swimlaneBody=0;fillColor=none;collapsible=0;dropTarget=0;points=[[0,0.5],[1,0.5]];portConstraint=eastwest;top=0;left=0;right=0;bottom=0;html=1;" parent="zV2Yj9LvBtoQlZ7fJhB_-21" vertex="1">
          <mxGeometry y="120" width="307" height="30" as="geometry" />
        </mxCell>
        <mxCell id="zV2Yj9LvBtoQlZ7fJhB_-32" value="" style="shape=partialRectangle;connectable=0;fillColor=default;top=0;left=0;bottom=0;right=0;editable=1;overflow=hidden;html=1;whiteSpace=wrap;" parent="zV2Yj9LvBtoQlZ7fJhB_-31" vertex="1">
          <mxGeometry width="60" height="30" as="geometry">
            <mxRectangle width="60" height="30" as="alternateBounds" />
          </mxGeometry>
        </mxCell>
        <mxCell id="zV2Yj9LvBtoQlZ7fJhB_-33" value="description&lt;span style=&quot;white-space: pre;&quot;&gt;&#x9;&lt;span style=&quot;white-space: pre;&quot;&gt;&#x9;&lt;span style=&quot;white-space: pre;&quot;&gt;&#x9;&lt;span style=&quot;white-space: pre;&quot;&gt;&#x9;&lt;/span&gt;&lt;/span&gt;&lt;/span&gt;&lt;/span&gt;string" style="shape=partialRectangle;connectable=0;fillColor=default;top=0;left=0;bottom=0;right=0;align=left;spacingLeft=6;overflow=hidden;html=1;whiteSpace=wrap;" parent="zV2Yj9LvBtoQlZ7fJhB_-31" vertex="1">
          <mxGeometry x="60" width="247" height="30" as="geometry">
            <mxRectangle width="247" height="30" as="alternateBounds" />
          </mxGeometry>
        </mxCell>
        <mxCell id="zV2Yj9LvBtoQlZ7fJhB_-126" value="" style="shape=partialRectangle;connectable=0;fillColor=default;top=0;left=0;bottom=0;right=0;editable=1;overflow=hidden;html=1;whiteSpace=wrap;" parent="zV2Yj9LvBtoQlZ7fJhB_-197" vertex="1">
          <mxGeometry y="149" width="60" height="30" as="geometry">
            <mxRectangle width="60" height="30" as="alternateBounds" />
          </mxGeometry>
        </mxCell>
        <mxCell id="zV2Yj9LvBtoQlZ7fJhB_-127" value="final_price&lt;span style=&quot;white-space: pre;&quot;&gt;&#x9;&lt;span style=&quot;white-space: pre;&quot;&gt;&#x9;&lt;span style=&quot;white-space: pre;&quot;&gt;&#x9;&lt;span style=&quot;white-space: pre;&quot;&gt;&#x9;&lt;/span&gt;&lt;/span&gt;&lt;/span&gt;&lt;/span&gt;decimal" style="shape=partialRectangle;connectable=0;fillColor=default;top=0;left=0;bottom=0;right=0;align=left;spacingLeft=6;overflow=hidden;html=1;whiteSpace=wrap;" parent="zV2Yj9LvBtoQlZ7fJhB_-197" vertex="1">
          <mxGeometry x="60" y="149" width="246" height="30" as="geometry">
            <mxRectangle width="120" height="30" as="alternateBounds" />
          </mxGeometry>
        </mxCell>
        <mxCell id="zV2Yj9LvBtoQlZ7fJhB_-166" value="" style="shape=partialRectangle;connectable=0;fillColor=default;top=0;left=0;bottom=0;right=0;editable=1;overflow=hidden;html=1;whiteSpace=wrap;" parent="zV2Yj9LvBtoQlZ7fJhB_-197" vertex="1">
          <mxGeometry x="0.2400000000000091" y="209" width="60" height="30" as="geometry">
            <mxRectangle width="60" height="30" as="alternateBounds" />
          </mxGeometry>
        </mxCell>
        <mxCell id="zV2Yj9LvBtoQlZ7fJhB_-167" value="needs_fetch_review&lt;span style=&quot;white-space: pre;&quot;&gt;&#x9;&lt;/span&gt;&lt;span style=&quot;white-space: pre;&quot;&gt;&#x9;&lt;/span&gt;bool" style="shape=partialRectangle;connectable=0;fillColor=default;top=0;left=0;bottom=0;right=0;align=left;spacingLeft=6;overflow=hidden;html=1;whiteSpace=wrap;" parent="zV2Yj9LvBtoQlZ7fJhB_-197" vertex="1">
          <mxGeometry x="60.24000000000001" y="209" width="245.76" height="30" as="geometry">
            <mxRectangle width="157.75862068965512" height="30" as="alternateBounds" />
          </mxGeometry>
        </mxCell>
        <mxCell id="zV2Yj9LvBtoQlZ7fJhB_-168" value="" style="shape=partialRectangle;connectable=0;fillColor=default;top=0;left=0;bottom=0;right=0;editable=1;overflow=hidden;html=1;whiteSpace=wrap;" parent="zV2Yj9LvBtoQlZ7fJhB_-197" vertex="1">
          <mxGeometry x="0.2400000000000091" y="239" width="60" height="30" as="geometry">
            <mxRectangle width="60" height="30" as="alternateBounds" />
          </mxGeometry>
        </mxCell>
        <mxCell id="zV2Yj9LvBtoQlZ7fJhB_-169" value="partner_item_id&lt;span style=&quot;white-space: pre;&quot;&gt;&#x9;&lt;span style=&quot;white-space: pre;&quot;&gt;&#x9;&lt;/span&gt;&lt;span style=&quot;white-space: pre;&quot;&gt;&#x9;&lt;/span&gt;&lt;/span&gt;bool" style="shape=partialRectangle;connectable=0;fillColor=default;top=0;left=0;bottom=0;right=0;align=left;spacingLeft=6;overflow=hidden;html=1;whiteSpace=wrap;" parent="zV2Yj9LvBtoQlZ7fJhB_-197" vertex="1">
          <mxGeometry x="60.24000000000001" y="239" width="245.76" height="30" as="geometry">
            <mxRectangle width="157.75862068965512" height="30" as="alternateBounds" />
          </mxGeometry>
        </mxCell>
        <mxCell id="zV2Yj9LvBtoQlZ7fJhB_-170" value="" style="shape=partialRectangle;connectable=0;fillColor=default;top=0;left=0;bottom=0;right=0;editable=1;overflow=hidden;html=1;whiteSpace=wrap;" parent="zV2Yj9LvBtoQlZ7fJhB_-197" vertex="1">
          <mxGeometry x="0.2400000000000091" y="269" width="60" height="30" as="geometry">
            <mxRectangle width="60" height="30" as="alternateBounds" />
          </mxGeometry>
        </mxCell>
        <mxCell id="zV2Yj9LvBtoQlZ7fJhB_-171" value="prevent_target_gap_points&lt;span style=&quot;white-space: pre;&quot;&gt;&#x9;&lt;/span&gt;bool" style="shape=partialRectangle;connectable=0;fillColor=default;top=0;left=0;bottom=0;right=0;align=left;spacingLeft=6;overflow=hidden;html=1;whiteSpace=wrap;" parent="zV2Yj9LvBtoQlZ7fJhB_-197" vertex="1">
          <mxGeometry x="60.24000000000001" y="269" width="245.76" height="30" as="geometry">
            <mxRectangle width="157.75862068965512" height="30" as="alternateBounds" />
          </mxGeometry>
        </mxCell>
        <mxCell id="zV2Yj9LvBtoQlZ7fJhB_-172" value="" style="shape=partialRectangle;connectable=0;fillColor=default;top=0;left=0;bottom=0;right=0;editable=1;overflow=hidden;html=1;whiteSpace=wrap;" parent="zV2Yj9LvBtoQlZ7fJhB_-197" vertex="1">
          <mxGeometry x="0.2400000000000091" y="299" width="60" height="30" as="geometry">
            <mxRectangle width="60" height="30" as="alternateBounds" />
          </mxGeometry>
        </mxCell>
        <mxCell id="zV2Yj9LvBtoQlZ7fJhB_-173" value="quantity_purchased&lt;span style=&quot;white-space: pre;&quot;&gt;&#x9;&lt;span style=&quot;white-space: pre;&quot;&gt;&#x9;&lt;/span&gt;&lt;span style=&quot;white-space: pre;&quot;&gt;&#x9;&lt;/span&gt;i&lt;/span&gt;nt" style="shape=partialRectangle;connectable=0;fillColor=default;top=0;left=0;bottom=0;right=0;align=left;spacingLeft=6;overflow=hidden;html=1;whiteSpace=wrap;" parent="zV2Yj9LvBtoQlZ7fJhB_-197" vertex="1">
          <mxGeometry x="60.24000000000001" y="299" width="245.76" height="30" as="geometry">
            <mxRectangle width="157.75862068965512" height="30" as="alternateBounds" />
          </mxGeometry>
        </mxCell>
        <mxCell id="zV2Yj9LvBtoQlZ7fJhB_-174" value="" style="shape=partialRectangle;connectable=0;fillColor=default;top=0;left=0;bottom=0;right=0;editable=1;overflow=hidden;html=1;whiteSpace=wrap;" parent="zV2Yj9LvBtoQlZ7fJhB_-197" vertex="1">
          <mxGeometry x="0.2400000000000091" y="329" width="60" height="30" as="geometry">
            <mxRectangle width="60" height="30" as="alternateBounds" />
          </mxGeometry>
        </mxCell>
        <mxCell id="zV2Yj9LvBtoQlZ7fJhB_-175" value="user_flagged_barcode&lt;span style=&quot;white-space: pre;&quot;&gt;&#x9;&lt;span style=&quot;white-space: pre;&quot;&gt;&#x9;&lt;/span&gt;string&lt;/span&gt;" style="shape=partialRectangle;connectable=0;fillColor=default;top=0;left=0;bottom=0;right=0;align=left;spacingLeft=6;overflow=hidden;html=1;whiteSpace=wrap;" parent="zV2Yj9LvBtoQlZ7fJhB_-197" vertex="1">
          <mxGeometry x="60.24000000000001" y="329" width="245.76" height="30" as="geometry">
            <mxRectangle width="157.75862068965512" height="30" as="alternateBounds" />
          </mxGeometry>
        </mxCell>
        <mxCell id="zV2Yj9LvBtoQlZ7fJhB_-176" value="" style="shape=partialRectangle;connectable=0;fillColor=default;top=0;left=0;bottom=0;right=0;editable=1;overflow=hidden;html=1;whiteSpace=wrap;" parent="zV2Yj9LvBtoQlZ7fJhB_-197" vertex="1">
          <mxGeometry x="0.2400000000000091" y="359" width="60" height="30" as="geometry">
            <mxRectangle width="60" height="30" as="alternateBounds" />
          </mxGeometry>
        </mxCell>
        <mxCell id="zV2Yj9LvBtoQlZ7fJhB_-177" value="user_flagged_new_item&lt;span style=&quot;white-space: pre;&quot;&gt;&#x9;&lt;/span&gt;&lt;span style=&quot;white-space: pre;&quot;&gt;&#x9;&lt;/span&gt;bool" style="shape=partialRectangle;connectable=0;fillColor=default;top=0;left=0;bottom=0;right=0;align=left;spacingLeft=6;overflow=hidden;html=1;whiteSpace=wrap;" parent="zV2Yj9LvBtoQlZ7fJhB_-197" vertex="1">
          <mxGeometry x="60.24000000000001" y="359" width="245.76" height="30" as="geometry">
            <mxRectangle width="157.75862068965512" height="30" as="alternateBounds" />
          </mxGeometry>
        </mxCell>
        <mxCell id="zV2Yj9LvBtoQlZ7fJhB_-178" value="" style="shape=partialRectangle;connectable=0;fillColor=default;top=0;left=0;bottom=0;right=0;editable=1;overflow=hidden;html=1;whiteSpace=wrap;" parent="zV2Yj9LvBtoQlZ7fJhB_-197" vertex="1">
          <mxGeometry x="0.2400000000000091" y="389" width="60" height="30" as="geometry">
            <mxRectangle width="60" height="30" as="alternateBounds" />
          </mxGeometry>
        </mxCell>
        <mxCell id="zV2Yj9LvBtoQlZ7fJhB_-179" value="user_flagged_price&lt;span style=&quot;white-space: pre;&quot;&gt;&#x9;&lt;/span&gt;&lt;span style=&quot;white-space: pre;&quot;&gt;&#x9;&lt;/span&gt;&lt;span style=&quot;white-space: pre;&quot;&gt;&#x9;&lt;/span&gt;decimal" style="shape=partialRectangle;connectable=0;fillColor=default;top=0;left=0;bottom=0;right=0;align=left;spacingLeft=6;overflow=hidden;html=1;whiteSpace=wrap;" parent="zV2Yj9LvBtoQlZ7fJhB_-197" vertex="1">
          <mxGeometry x="60.24000000000001" y="389" width="244.76" height="30" as="geometry">
            <mxRectangle width="157.75862068965512" height="30" as="alternateBounds" />
          </mxGeometry>
        </mxCell>
        <mxCell id="zV2Yj9LvBtoQlZ7fJhB_-180" value="needs_fetch_review&lt;span style=&quot;white-space: pre;&quot;&gt;&#x9;&lt;/span&gt;&lt;span style=&quot;white-space: pre;&quot;&gt;&#x9;&lt;/span&gt;bool" style="shape=partialRectangle;connectable=0;fillColor=default;top=0;left=0;bottom=0;right=0;align=left;spacingLeft=6;overflow=hidden;html=1;whiteSpace=wrap;" parent="zV2Yj9LvBtoQlZ7fJhB_-197" vertex="1">
          <mxGeometry x="60" y="179" width="246" height="30" as="geometry">
            <mxRectangle width="157.75862068965512" height="30" as="alternateBounds" />
          </mxGeometry>
        </mxCell>
        <mxCell id="zV2Yj9LvBtoQlZ7fJhB_-181" value="" style="shape=partialRectangle;connectable=0;fillColor=default;top=0;left=0;bottom=0;right=0;editable=1;overflow=hidden;html=1;whiteSpace=wrap;" parent="zV2Yj9LvBtoQlZ7fJhB_-197" vertex="1">
          <mxGeometry x="0.2400000000000091" y="179" width="60" height="30" as="geometry">
            <mxRectangle width="60" height="30" as="alternateBounds" />
          </mxGeometry>
        </mxCell>
        <mxCell id="zV2Yj9LvBtoQlZ7fJhB_-182" value="" style="shape=partialRectangle;connectable=0;fillColor=default;top=0;left=0;bottom=0;right=0;editable=1;overflow=hidden;html=1;whiteSpace=wrap;" parent="zV2Yj9LvBtoQlZ7fJhB_-197" vertex="1">
          <mxGeometry x="0.2400000000000091" y="419" width="60" height="30" as="geometry">
            <mxRectangle width="60" height="30" as="alternateBounds" />
          </mxGeometry>
        </mxCell>
        <mxCell id="zV2Yj9LvBtoQlZ7fJhB_-183" value="user_flagged_quantity&lt;span style=&quot;white-space: pre;&quot;&gt;&#x9;&lt;/span&gt;&lt;span style=&quot;white-space: pre;&quot;&gt;&#x9;&lt;/span&gt;int" style="shape=partialRectangle;connectable=0;fillColor=default;top=0;left=0;bottom=0;right=0;align=left;spacingLeft=6;overflow=hidden;html=1;whiteSpace=wrap;" parent="zV2Yj9LvBtoQlZ7fJhB_-197" vertex="1">
          <mxGeometry x="60.24000000000001" y="419" width="244.76" height="30" as="geometry">
            <mxRectangle width="157.75862068965512" height="30" as="alternateBounds" />
          </mxGeometry>
        </mxCell>
        <mxCell id="zV2Yj9LvBtoQlZ7fJhB_-198" value="" style="group" parent="1" vertex="1" connectable="0">
          <mxGeometry x="345" y="-509" width="307" height="450" as="geometry" />
        </mxCell>
        <mxCell id="zV2Yj9LvBtoQlZ7fJhB_-199" value="receipts" style="shape=table;startSize=30;container=1;collapsible=1;childLayout=tableLayout;fixedRows=1;rowLines=0;fontStyle=1;align=center;resizeLast=1;html=1;whiteSpace=wrap;fillColor=default;" parent="zV2Yj9LvBtoQlZ7fJhB_-198" vertex="1">
          <mxGeometry width="307" height="450" as="geometry" />
        </mxCell>
        <mxCell id="zV2Yj9LvBtoQlZ7fJhB_-200" value="" style="shape=tableRow;horizontal=0;startSize=0;swimlaneHead=0;swimlaneBody=0;fillColor=none;collapsible=0;dropTarget=0;points=[[0,0.5],[1,0.5]];portConstraint=eastwest;top=0;left=0;right=0;bottom=0;html=1;" parent="zV2Yj9LvBtoQlZ7fJhB_-199" vertex="1">
          <mxGeometry y="30" width="307" height="30" as="geometry" />
        </mxCell>
        <mxCell id="zV2Yj9LvBtoQlZ7fJhB_-201" value="PK" style="shape=partialRectangle;connectable=0;fillColor=default;top=0;left=0;bottom=0;right=0;fontStyle=1;overflow=hidden;html=1;whiteSpace=wrap;" parent="zV2Yj9LvBtoQlZ7fJhB_-200" vertex="1">
          <mxGeometry width="60" height="30" as="geometry">
            <mxRectangle width="60" height="30" as="alternateBounds" />
          </mxGeometry>
        </mxCell>
        <mxCell id="zV2Yj9LvBtoQlZ7fJhB_-202" value="receipt_id" style="shape=partialRectangle;connectable=0;fillColor=default;top=0;left=0;bottom=0;right=0;align=left;spacingLeft=6;fontStyle=5;overflow=hidden;html=1;whiteSpace=wrap;" parent="zV2Yj9LvBtoQlZ7fJhB_-200" vertex="1">
          <mxGeometry x="60" width="247" height="30" as="geometry">
            <mxRectangle width="247" height="30" as="alternateBounds" />
          </mxGeometry>
        </mxCell>
        <mxCell id="zV2Yj9LvBtoQlZ7fJhB_-203" value="" style="shape=tableRow;horizontal=0;startSize=0;swimlaneHead=0;swimlaneBody=0;fillColor=none;collapsible=0;dropTarget=0;points=[[0,0.5],[1,0.5]];portConstraint=eastwest;top=0;left=0;right=0;bottom=1;html=1;" parent="zV2Yj9LvBtoQlZ7fJhB_-199" vertex="1">
          <mxGeometry y="60" width="307" height="30" as="geometry" />
        </mxCell>
        <mxCell id="zV2Yj9LvBtoQlZ7fJhB_-204" value="FK" style="shape=partialRectangle;connectable=0;fillColor=default;top=0;left=0;bottom=0;right=0;fontStyle=1;overflow=hidden;html=1;whiteSpace=wrap;" parent="zV2Yj9LvBtoQlZ7fJhB_-203" vertex="1">
          <mxGeometry width="60" height="30" as="geometry">
            <mxRectangle width="60" height="30" as="alternateBounds" />
          </mxGeometry>
        </mxCell>
        <mxCell id="zV2Yj9LvBtoQlZ7fJhB_-205" value="user_id" style="shape=partialRectangle;connectable=0;fillColor=default;top=0;left=0;bottom=0;right=0;align=left;spacingLeft=6;fontStyle=5;overflow=hidden;html=1;whiteSpace=wrap;" parent="zV2Yj9LvBtoQlZ7fJhB_-203" vertex="1">
          <mxGeometry x="60" width="247" height="30" as="geometry">
            <mxRectangle width="247" height="30" as="alternateBounds" />
          </mxGeometry>
        </mxCell>
        <mxCell id="zV2Yj9LvBtoQlZ7fJhB_-206" value="" style="shape=tableRow;horizontal=0;startSize=0;swimlaneHead=0;swimlaneBody=0;fillColor=none;collapsible=0;dropTarget=0;points=[[0,0.5],[1,0.5]];portConstraint=eastwest;top=0;left=0;right=0;bottom=0;html=1;" parent="zV2Yj9LvBtoQlZ7fJhB_-199" vertex="1">
          <mxGeometry y="90" width="307" height="30" as="geometry" />
        </mxCell>
        <mxCell id="zV2Yj9LvBtoQlZ7fJhB_-207" value="" style="shape=partialRectangle;connectable=0;fillColor=default;top=0;left=0;bottom=0;right=0;editable=1;overflow=hidden;html=1;whiteSpace=wrap;" parent="zV2Yj9LvBtoQlZ7fJhB_-206" vertex="1">
          <mxGeometry width="60" height="30" as="geometry">
            <mxRectangle width="60" height="30" as="alternateBounds" />
          </mxGeometry>
        </mxCell>
        <mxCell id="zV2Yj9LvBtoQlZ7fJhB_-208" value="bonus_points_earned&lt;span style=&quot;white-space: pre;&quot;&gt;&#x9;&lt;/span&gt;&lt;span style=&quot;white-space: pre;&quot;&gt;&#x9;&lt;/span&gt;int" style="shape=partialRectangle;connectable=0;fillColor=default;top=0;left=0;bottom=0;right=0;align=left;spacingLeft=6;overflow=hidden;html=1;whiteSpace=wrap;" parent="zV2Yj9LvBtoQlZ7fJhB_-206" vertex="1">
          <mxGeometry x="60" width="247" height="30" as="geometry">
            <mxRectangle width="247" height="30" as="alternateBounds" />
          </mxGeometry>
        </mxCell>
        <mxCell id="zV2Yj9LvBtoQlZ7fJhB_-209" value="" style="shape=tableRow;horizontal=0;startSize=0;swimlaneHead=0;swimlaneBody=0;fillColor=none;collapsible=0;dropTarget=0;points=[[0,0.5],[1,0.5]];portConstraint=eastwest;top=0;left=0;right=0;bottom=0;html=1;" parent="zV2Yj9LvBtoQlZ7fJhB_-199" vertex="1">
          <mxGeometry y="120" width="307" height="30" as="geometry" />
        </mxCell>
        <mxCell id="zV2Yj9LvBtoQlZ7fJhB_-210" value="" style="shape=partialRectangle;connectable=0;fillColor=default;top=0;left=0;bottom=0;right=0;editable=1;overflow=hidden;html=1;whiteSpace=wrap;" parent="zV2Yj9LvBtoQlZ7fJhB_-209" vertex="1">
          <mxGeometry width="60" height="30" as="geometry">
            <mxRectangle width="60" height="30" as="alternateBounds" />
          </mxGeometry>
        </mxCell>
        <mxCell id="zV2Yj9LvBtoQlZ7fJhB_-211" value="bonus_points_reason&lt;span style=&quot;white-space: pre;&quot;&gt;&#x9;&lt;/span&gt;&lt;span style=&quot;white-space: pre;&quot;&gt;&#x9;&lt;/span&gt;string" style="shape=partialRectangle;connectable=0;fillColor=default;top=0;left=0;bottom=0;right=0;align=left;spacingLeft=6;overflow=hidden;html=1;whiteSpace=wrap;" parent="zV2Yj9LvBtoQlZ7fJhB_-209" vertex="1">
          <mxGeometry x="60" width="247" height="30" as="geometry">
            <mxRectangle width="247" height="30" as="alternateBounds" />
          </mxGeometry>
        </mxCell>
        <mxCell id="zV2Yj9LvBtoQlZ7fJhB_-212" value="" style="shape=partialRectangle;connectable=0;fillColor=default;top=0;left=0;bottom=0;right=0;editable=1;overflow=hidden;html=1;whiteSpace=wrap;" parent="zV2Yj9LvBtoQlZ7fJhB_-198" vertex="1">
          <mxGeometry y="149" width="60" height="30" as="geometry">
            <mxRectangle width="60" height="30" as="alternateBounds" />
          </mxGeometry>
        </mxCell>
        <mxCell id="zV2Yj9LvBtoQlZ7fJhB_-213" value="create_date&lt;span style=&quot;white-space: pre;&quot;&gt;&#x9;&lt;/span&gt;&lt;span style=&quot;white-space: pre;&quot;&gt;&#x9;&lt;/span&gt;&lt;span style=&quot;white-space: pre;&quot;&gt;&#x9;&lt;/span&gt;&lt;span style=&quot;white-space: pre;&quot;&gt;&#x9;&lt;/span&gt;datetime" style="shape=partialRectangle;connectable=0;fillColor=default;top=0;left=0;bottom=0;right=0;align=left;spacingLeft=6;overflow=hidden;html=1;whiteSpace=wrap;" parent="zV2Yj9LvBtoQlZ7fJhB_-198" vertex="1">
          <mxGeometry x="60" y="149" width="246" height="30" as="geometry">
            <mxRectangle width="120" height="30" as="alternateBounds" />
          </mxGeometry>
        </mxCell>
        <mxCell id="zV2Yj9LvBtoQlZ7fJhB_-214" value="" style="shape=partialRectangle;connectable=0;fillColor=default;top=0;left=0;bottom=0;right=0;editable=1;overflow=hidden;html=1;whiteSpace=wrap;" parent="zV2Yj9LvBtoQlZ7fJhB_-198" vertex="1">
          <mxGeometry x="0.2400000000000091" y="209" width="60" height="30" as="geometry">
            <mxRectangle width="60" height="30" as="alternateBounds" />
          </mxGeometry>
        </mxCell>
        <mxCell id="zV2Yj9LvBtoQlZ7fJhB_-215" value="finished_date&lt;span style=&quot;white-space: pre;&quot;&gt;&#x9;&lt;/span&gt;&lt;span style=&quot;white-space: pre;&quot;&gt;&#x9;&lt;/span&gt;&lt;span style=&quot;white-space: pre;&quot;&gt;&#x9;&lt;/span&gt;&lt;span style=&quot;white-space: pre;&quot;&gt;&#x9;&lt;/span&gt;datetime" style="shape=partialRectangle;connectable=0;fillColor=default;top=0;left=0;bottom=0;right=0;align=left;spacingLeft=6;overflow=hidden;html=1;whiteSpace=wrap;" parent="zV2Yj9LvBtoQlZ7fJhB_-198" vertex="1">
          <mxGeometry x="60.24000000000001" y="209" width="245.76" height="30" as="geometry">
            <mxRectangle width="157.75862068965512" height="30" as="alternateBounds" />
          </mxGeometry>
        </mxCell>
        <mxCell id="zV2Yj9LvBtoQlZ7fJhB_-216" value="" style="shape=partialRectangle;connectable=0;fillColor=default;top=0;left=0;bottom=0;right=0;editable=1;overflow=hidden;html=1;whiteSpace=wrap;" parent="zV2Yj9LvBtoQlZ7fJhB_-198" vertex="1">
          <mxGeometry x="0.2400000000000091" y="239" width="60" height="30" as="geometry">
            <mxRectangle width="60" height="30" as="alternateBounds" />
          </mxGeometry>
        </mxCell>
        <mxCell id="zV2Yj9LvBtoQlZ7fJhB_-217" value="modify_date&lt;span style=&quot;white-space: pre;&quot;&gt;&#x9;&lt;/span&gt;&lt;span style=&quot;white-space: pre;&quot;&gt;&#x9;&lt;/span&gt;&lt;span style=&quot;white-space: pre;&quot;&gt;&#x9;&lt;/span&gt;&lt;span style=&quot;white-space: pre;&quot;&gt;&#x9;&lt;/span&gt;datetime" style="shape=partialRectangle;connectable=0;fillColor=default;top=0;left=0;bottom=0;right=0;align=left;spacingLeft=6;overflow=hidden;html=1;whiteSpace=wrap;" parent="zV2Yj9LvBtoQlZ7fJhB_-198" vertex="1">
          <mxGeometry x="60.24000000000001" y="239" width="245.76" height="30" as="geometry">
            <mxRectangle width="157.75862068965512" height="30" as="alternateBounds" />
          </mxGeometry>
        </mxCell>
        <mxCell id="zV2Yj9LvBtoQlZ7fJhB_-218" value="" style="shape=partialRectangle;connectable=0;fillColor=default;top=0;left=0;bottom=0;right=0;editable=1;overflow=hidden;html=1;whiteSpace=wrap;" parent="zV2Yj9LvBtoQlZ7fJhB_-198" vertex="1">
          <mxGeometry x="0.2400000000000091" y="269" width="60" height="30" as="geometry">
            <mxRectangle width="60" height="30" as="alternateBounds" />
          </mxGeometry>
        </mxCell>
        <mxCell id="zV2Yj9LvBtoQlZ7fJhB_-219" value="points_awarded_date&lt;span style=&quot;white-space: pre;&quot;&gt;&#x9;&lt;/span&gt;&lt;span style=&quot;white-space: pre;&quot;&gt;&#x9;&lt;/span&gt;datetime" style="shape=partialRectangle;connectable=0;fillColor=default;top=0;left=0;bottom=0;right=0;align=left;spacingLeft=6;overflow=hidden;html=1;whiteSpace=wrap;" parent="zV2Yj9LvBtoQlZ7fJhB_-198" vertex="1">
          <mxGeometry x="60.24000000000001" y="269" width="245.76" height="30" as="geometry">
            <mxRectangle width="157.75862068965512" height="30" as="alternateBounds" />
          </mxGeometry>
        </mxCell>
        <mxCell id="zV2Yj9LvBtoQlZ7fJhB_-220" value="" style="shape=partialRectangle;connectable=0;fillColor=default;top=0;left=0;bottom=0;right=0;editable=1;overflow=hidden;html=1;whiteSpace=wrap;" parent="zV2Yj9LvBtoQlZ7fJhB_-198" vertex="1">
          <mxGeometry x="0.2400000000000091" y="299" width="60" height="30" as="geometry">
            <mxRectangle width="60" height="30" as="alternateBounds" />
          </mxGeometry>
        </mxCell>
        <mxCell id="zV2Yj9LvBtoQlZ7fJhB_-221" value="points_earned&lt;span style=&quot;white-space: pre;&quot;&gt;&#x9;&lt;/span&gt;&lt;span style=&quot;white-space: pre;&quot;&gt;&#x9;&lt;/span&gt;&lt;span style=&quot;white-space: pre;&quot;&gt;&#x9;&lt;/span&gt;&lt;span style=&quot;white-space: pre;&quot;&gt;&#x9;&lt;/span&gt;decimal" style="shape=partialRectangle;connectable=0;fillColor=default;top=0;left=0;bottom=0;right=0;align=left;spacingLeft=6;overflow=hidden;html=1;whiteSpace=wrap;" parent="zV2Yj9LvBtoQlZ7fJhB_-198" vertex="1">
          <mxGeometry x="60.24000000000001" y="299" width="245.76" height="30" as="geometry">
            <mxRectangle width="157.75862068965512" height="30" as="alternateBounds" />
          </mxGeometry>
        </mxCell>
        <mxCell id="zV2Yj9LvBtoQlZ7fJhB_-222" value="" style="shape=partialRectangle;connectable=0;fillColor=default;top=0;left=0;bottom=0;right=0;editable=1;overflow=hidden;html=1;whiteSpace=wrap;" parent="zV2Yj9LvBtoQlZ7fJhB_-198" vertex="1">
          <mxGeometry x="0.2400000000000091" y="329" width="60" height="30" as="geometry">
            <mxRectangle width="60" height="30" as="alternateBounds" />
          </mxGeometry>
        </mxCell>
        <mxCell id="zV2Yj9LvBtoQlZ7fJhB_-223" value="purchase_date&lt;span style=&quot;white-space: pre;&quot;&gt;&#x9;&lt;/span&gt;&lt;span style=&quot;white-space: pre;&quot;&gt;&#x9;&lt;span style=&quot;white-space: pre;&quot;&gt;&#x9;&lt;/span&gt;datetime&lt;/span&gt;" style="shape=partialRectangle;connectable=0;fillColor=default;top=0;left=0;bottom=0;right=0;align=left;spacingLeft=6;overflow=hidden;html=1;whiteSpace=wrap;" parent="zV2Yj9LvBtoQlZ7fJhB_-198" vertex="1">
          <mxGeometry x="60.24000000000001" y="329" width="245.76" height="30" as="geometry">
            <mxRectangle width="157.75862068965512" height="30" as="alternateBounds" />
          </mxGeometry>
        </mxCell>
        <mxCell id="zV2Yj9LvBtoQlZ7fJhB_-224" value="" style="shape=partialRectangle;connectable=0;fillColor=default;top=0;left=0;bottom=0;right=0;editable=1;overflow=hidden;html=1;whiteSpace=wrap;" parent="zV2Yj9LvBtoQlZ7fJhB_-198" vertex="1">
          <mxGeometry x="0.2400000000000091" y="359" width="60" height="30" as="geometry">
            <mxRectangle width="60" height="30" as="alternateBounds" />
          </mxGeometry>
        </mxCell>
        <mxCell id="zV2Yj9LvBtoQlZ7fJhB_-225" value="purchase_item_count&lt;span style=&quot;white-space: pre;&quot;&gt;&#x9;&lt;/span&gt;&lt;span style=&quot;white-space: pre;&quot;&gt;&#x9;&lt;/span&gt;int" style="shape=partialRectangle;connectable=0;fillColor=default;top=0;left=0;bottom=0;right=0;align=left;spacingLeft=6;overflow=hidden;html=1;whiteSpace=wrap;" parent="zV2Yj9LvBtoQlZ7fJhB_-198" vertex="1">
          <mxGeometry x="60.24000000000001" y="359" width="245.76" height="30" as="geometry">
            <mxRectangle width="157.75862068965512" height="30" as="alternateBounds" />
          </mxGeometry>
        </mxCell>
        <mxCell id="zV2Yj9LvBtoQlZ7fJhB_-226" value="" style="shape=partialRectangle;connectable=0;fillColor=default;top=0;left=0;bottom=0;right=0;editable=1;overflow=hidden;html=1;whiteSpace=wrap;" parent="zV2Yj9LvBtoQlZ7fJhB_-198" vertex="1">
          <mxGeometry x="0.2400000000000091" y="389" width="60" height="30" as="geometry">
            <mxRectangle width="60" height="30" as="alternateBounds" />
          </mxGeometry>
        </mxCell>
        <mxCell id="zV2Yj9LvBtoQlZ7fJhB_-227" value="reward_receipt_status&lt;span style=&quot;white-space: pre;&quot;&gt;&#x9;&lt;/span&gt;&lt;span style=&quot;white-space: pre;&quot;&gt;&#x9;&lt;/span&gt;string" style="shape=partialRectangle;connectable=0;fillColor=default;top=0;left=0;bottom=0;right=0;align=left;spacingLeft=6;overflow=hidden;html=1;whiteSpace=wrap;" parent="zV2Yj9LvBtoQlZ7fJhB_-198" vertex="1">
          <mxGeometry x="60.24000000000001" y="389" width="244.76" height="30" as="geometry">
            <mxRectangle width="157.75862068965512" height="30" as="alternateBounds" />
          </mxGeometry>
        </mxCell>
        <mxCell id="zV2Yj9LvBtoQlZ7fJhB_-228" value="date_scanned&lt;span style=&quot;white-space: pre;&quot;&gt;&#x9;&lt;/span&gt;&lt;span style=&quot;white-space: pre;&quot;&gt;&#x9;&lt;/span&gt;&lt;span style=&quot;white-space: pre;&quot;&gt;&#x9;&lt;/span&gt;&lt;span style=&quot;white-space: pre;&quot;&gt;&#x9;&lt;/span&gt;datetime" style="shape=partialRectangle;connectable=0;fillColor=default;top=0;left=0;bottom=0;right=0;align=left;spacingLeft=6;overflow=hidden;html=1;whiteSpace=wrap;" parent="zV2Yj9LvBtoQlZ7fJhB_-198" vertex="1">
          <mxGeometry x="60" y="179" width="246" height="30" as="geometry">
            <mxRectangle width="157.75862068965512" height="30" as="alternateBounds" />
          </mxGeometry>
        </mxCell>
        <mxCell id="zV2Yj9LvBtoQlZ7fJhB_-229" value="" style="shape=partialRectangle;connectable=0;fillColor=default;top=0;left=0;bottom=0;right=0;editable=1;overflow=hidden;html=1;whiteSpace=wrap;" parent="zV2Yj9LvBtoQlZ7fJhB_-198" vertex="1">
          <mxGeometry x="0.2400000000000091" y="179" width="60" height="30" as="geometry">
            <mxRectangle width="60" height="30" as="alternateBounds" />
          </mxGeometry>
        </mxCell>
        <mxCell id="zV2Yj9LvBtoQlZ7fJhB_-230" value="" style="shape=partialRectangle;connectable=0;fillColor=default;top=0;left=0;bottom=0;right=0;editable=1;overflow=hidden;html=1;whiteSpace=wrap;" parent="zV2Yj9LvBtoQlZ7fJhB_-198" vertex="1">
          <mxGeometry x="0.2400000000000091" y="419" width="60" height="30" as="geometry">
            <mxRectangle width="60" height="30" as="alternateBounds" />
          </mxGeometry>
        </mxCell>
        <mxCell id="zV2Yj9LvBtoQlZ7fJhB_-231" value="total_spent&lt;span style=&quot;white-space: pre;&quot;&gt;&#x9;&lt;/span&gt;&lt;span style=&quot;white-space: pre;&quot;&gt;&#x9;&lt;/span&gt;&lt;span style=&quot;white-space: pre;&quot;&gt;&#x9;&lt;/span&gt;&lt;span style=&quot;white-space: pre;&quot;&gt;&#x9;&lt;/span&gt;decimal" style="shape=partialRectangle;connectable=0;fillColor=default;top=0;left=0;bottom=0;right=0;align=left;spacingLeft=6;overflow=hidden;html=1;whiteSpace=wrap;" parent="zV2Yj9LvBtoQlZ7fJhB_-198" vertex="1">
          <mxGeometry x="60.24000000000001" y="419" width="244.76" height="30" as="geometry">
            <mxRectangle width="157.75862068965512" height="30" as="alternateBounds" />
          </mxGeometry>
        </mxCell>
        <mxCell id="zV2Yj9LvBtoQlZ7fJhB_-245" value="cpg" style="shape=table;startSize=30;container=1;collapsible=1;childLayout=tableLayout;fixedRows=1;rowLines=0;fontStyle=1;align=center;resizeLast=1;html=1;fillColor=default;" parent="1" vertex="1">
          <mxGeometry x="1470" y="-460" width="180" height="91" as="geometry" />
        </mxCell>
        <mxCell id="zV2Yj9LvBtoQlZ7fJhB_-246" value="" style="shape=tableRow;horizontal=0;startSize=0;swimlaneHead=0;swimlaneBody=0;fillColor=none;collapsible=0;dropTarget=0;points=[[0,0.5],[1,0.5]];portConstraint=eastwest;top=0;left=0;right=0;bottom=1;" parent="zV2Yj9LvBtoQlZ7fJhB_-245" vertex="1">
          <mxGeometry y="30" width="180" height="30" as="geometry" />
        </mxCell>
        <mxCell id="zV2Yj9LvBtoQlZ7fJhB_-247" value="PK" style="shape=partialRectangle;connectable=0;fillColor=default;top=0;left=0;bottom=0;right=0;fontStyle=1;overflow=hidden;whiteSpace=wrap;html=1;" parent="zV2Yj9LvBtoQlZ7fJhB_-246" vertex="1">
          <mxGeometry width="30" height="30" as="geometry">
            <mxRectangle width="30" height="30" as="alternateBounds" />
          </mxGeometry>
        </mxCell>
        <mxCell id="zV2Yj9LvBtoQlZ7fJhB_-248" value="cpg_id&lt;span style=&quot;white-space: pre;&quot;&gt;&#x9;&lt;/span&gt;char(24)" style="shape=partialRectangle;connectable=0;fillColor=default;top=0;left=0;bottom=0;right=0;align=left;spacingLeft=6;fontStyle=5;overflow=hidden;whiteSpace=wrap;html=1;" parent="zV2Yj9LvBtoQlZ7fJhB_-246" vertex="1">
          <mxGeometry x="30" width="150" height="30" as="geometry">
            <mxRectangle width="150" height="30" as="alternateBounds" />
          </mxGeometry>
        </mxCell>
        <mxCell id="zV2Yj9LvBtoQlZ7fJhB_-249" value="" style="shape=tableRow;horizontal=0;startSize=0;swimlaneHead=0;swimlaneBody=0;fillColor=none;collapsible=0;dropTarget=0;points=[[0,0.5],[1,0.5]];portConstraint=eastwest;top=0;left=0;right=0;bottom=0;" parent="zV2Yj9LvBtoQlZ7fJhB_-245" vertex="1">
          <mxGeometry y="60" width="180" height="30" as="geometry" />
        </mxCell>
        <mxCell id="zV2Yj9LvBtoQlZ7fJhB_-250" value="" style="shape=partialRectangle;connectable=0;fillColor=default;top=0;left=0;bottom=0;right=0;editable=1;overflow=hidden;whiteSpace=wrap;html=1;" parent="zV2Yj9LvBtoQlZ7fJhB_-249" vertex="1">
          <mxGeometry width="30" height="30" as="geometry">
            <mxRectangle width="30" height="30" as="alternateBounds" />
          </mxGeometry>
        </mxCell>
        <mxCell id="zV2Yj9LvBtoQlZ7fJhB_-251" value="ref&lt;span style=&quot;white-space: pre;&quot;&gt;&#x9;&lt;/span&gt;&lt;span style=&quot;white-space: pre;&quot;&gt;&#x9;&lt;/span&gt;string" style="shape=partialRectangle;connectable=0;fillColor=default;top=0;left=0;bottom=0;right=0;align=left;spacingLeft=6;overflow=hidden;whiteSpace=wrap;html=1;" parent="zV2Yj9LvBtoQlZ7fJhB_-249" vertex="1">
          <mxGeometry x="30" width="150" height="30" as="geometry">
            <mxRectangle width="150" height="30" as="alternateBounds" />
          </mxGeometry>
        </mxCell>
        <mxCell id="zV2Yj9LvBtoQlZ7fJhB_-263" value="" style="edgeStyle=entityRelationEdgeStyle;fontSize=12;html=1;endArrow=ERoneToMany;rounded=0;exitX=1;exitY=0.5;exitDx=0;exitDy=0;" parent="1" source="zV2Yj9LvBtoQlZ7fJhB_-93" target="zV2Yj9LvBtoQlZ7fJhB_-203" edge="1">
          <mxGeometry width="100" height="100" relative="1" as="geometry">
            <mxPoint x="251" y="-247" as="sourcePoint" />
            <mxPoint x="351" y="-347" as="targetPoint" />
          </mxGeometry>
        </mxCell>
        <mxCell id="zV2Yj9LvBtoQlZ7fJhB_-264" value="" style="group" parent="1" vertex="1" connectable="0">
          <mxGeometry x="1157" y="-494" width="255" height="269" as="geometry" />
        </mxCell>
        <mxCell id="zV2Yj9LvBtoQlZ7fJhB_-60" value="brands" style="shape=table;startSize=30;container=1;collapsible=1;childLayout=tableLayout;fixedRows=1;rowLines=0;fontStyle=1;align=center;resizeLast=1;html=1;whiteSpace=wrap;fillColor=#FFFFFF;gradientColor=none;" parent="zV2Yj9LvBtoQlZ7fJhB_-264" vertex="1">
          <mxGeometry width="255" height="269" as="geometry" />
        </mxCell>
        <mxCell id="zV2Yj9LvBtoQlZ7fJhB_-61" value="" style="shape=tableRow;horizontal=0;startSize=0;swimlaneHead=0;swimlaneBody=0;fillColor=none;collapsible=0;dropTarget=0;points=[[0,0.5],[1,0.5]];portConstraint=eastwest;top=0;left=0;right=0;bottom=0;html=1;" parent="zV2Yj9LvBtoQlZ7fJhB_-60" vertex="1">
          <mxGeometry y="30" width="255" height="30" as="geometry" />
        </mxCell>
        <mxCell id="zV2Yj9LvBtoQlZ7fJhB_-62" value="PK" style="shape=partialRectangle;connectable=0;fillColor=default;top=0;left=0;bottom=0;right=0;fontStyle=1;overflow=hidden;html=1;whiteSpace=wrap;" parent="zV2Yj9LvBtoQlZ7fJhB_-61" vertex="1">
          <mxGeometry width="60" height="30" as="geometry">
            <mxRectangle width="60" height="30" as="alternateBounds" />
          </mxGeometry>
        </mxCell>
        <mxCell id="zV2Yj9LvBtoQlZ7fJhB_-63" value="brand_id&lt;span style=&quot;white-space: pre;&quot;&gt;&#x9;&lt;span style=&quot;white-space: pre;&quot;&gt;&#x9;&lt;span style=&quot;white-space: pre;&quot;&gt;&#x9;&lt;/span&gt;&lt;/span&gt;&lt;/span&gt;char(24)" style="shape=partialRectangle;connectable=0;fillColor=default;top=0;left=0;bottom=0;right=0;align=left;spacingLeft=6;fontStyle=5;overflow=hidden;html=1;whiteSpace=wrap;" parent="zV2Yj9LvBtoQlZ7fJhB_-61" vertex="1">
          <mxGeometry x="60" width="195" height="30" as="geometry">
            <mxRectangle width="195" height="30" as="alternateBounds" />
          </mxGeometry>
        </mxCell>
        <mxCell id="zV2Yj9LvBtoQlZ7fJhB_-64" value="" style="shape=tableRow;horizontal=0;startSize=0;swimlaneHead=0;swimlaneBody=0;fillColor=none;collapsible=0;dropTarget=0;points=[[0,0.5],[1,0.5]];portConstraint=eastwest;top=0;left=0;right=0;bottom=1;html=1;" parent="zV2Yj9LvBtoQlZ7fJhB_-60" vertex="1">
          <mxGeometry y="60" width="255" height="30" as="geometry" />
        </mxCell>
        <mxCell id="zV2Yj9LvBtoQlZ7fJhB_-65" value="FK" style="shape=partialRectangle;connectable=0;fillColor=default;top=0;left=0;bottom=0;right=0;fontStyle=1;overflow=hidden;html=1;whiteSpace=wrap;" parent="zV2Yj9LvBtoQlZ7fJhB_-64" vertex="1">
          <mxGeometry width="60" height="30" as="geometry">
            <mxRectangle width="60" height="30" as="alternateBounds" />
          </mxGeometry>
        </mxCell>
        <mxCell id="zV2Yj9LvBtoQlZ7fJhB_-66" value="" style="shape=partialRectangle;connectable=0;fillColor=default;top=0;left=0;bottom=0;right=0;align=left;spacingLeft=6;fontStyle=5;overflow=hidden;html=1;whiteSpace=wrap;" parent="zV2Yj9LvBtoQlZ7fJhB_-64" vertex="1">
          <mxGeometry x="60" width="195" height="30" as="geometry">
            <mxRectangle width="195" height="30" as="alternateBounds" />
          </mxGeometry>
        </mxCell>
        <mxCell id="zV2Yj9LvBtoQlZ7fJhB_-67" value="" style="shape=tableRow;horizontal=0;startSize=0;swimlaneHead=0;swimlaneBody=0;fillColor=none;collapsible=0;dropTarget=0;points=[[0,0.5],[1,0.5]];portConstraint=eastwest;top=0;left=0;right=0;bottom=0;html=1;" parent="zV2Yj9LvBtoQlZ7fJhB_-60" vertex="1">
          <mxGeometry y="90" width="255" height="30" as="geometry" />
        </mxCell>
        <mxCell id="zV2Yj9LvBtoQlZ7fJhB_-68" value="" style="shape=partialRectangle;connectable=0;fillColor=default;top=0;left=0;bottom=0;right=0;editable=1;overflow=hidden;html=1;whiteSpace=wrap;" parent="zV2Yj9LvBtoQlZ7fJhB_-67" vertex="1">
          <mxGeometry width="60" height="30" as="geometry">
            <mxRectangle width="60" height="30" as="alternateBounds" />
          </mxGeometry>
        </mxCell>
        <mxCell id="zV2Yj9LvBtoQlZ7fJhB_-69" value="barcode&lt;span style=&quot;white-space: pre;&quot;&gt;&#x9;&lt;/span&gt;&lt;span style=&quot;white-space: pre;&quot;&gt;&#x9;&lt;/span&gt;&lt;span style=&quot;white-space: pre;&quot;&gt;&#x9;&lt;/span&gt;string" style="shape=partialRectangle;connectable=0;fillColor=default;top=0;left=0;bottom=0;right=0;align=left;spacingLeft=6;overflow=hidden;html=1;whiteSpace=wrap;" parent="zV2Yj9LvBtoQlZ7fJhB_-67" vertex="1">
          <mxGeometry x="60" width="195" height="30" as="geometry">
            <mxRectangle width="195" height="30" as="alternateBounds" />
          </mxGeometry>
        </mxCell>
        <mxCell id="zV2Yj9LvBtoQlZ7fJhB_-70" value="" style="shape=tableRow;horizontal=0;startSize=0;swimlaneHead=0;swimlaneBody=0;fillColor=none;collapsible=0;dropTarget=0;points=[[0,0.5],[1,0.5]];portConstraint=eastwest;top=0;left=0;right=0;bottom=0;html=1;" parent="zV2Yj9LvBtoQlZ7fJhB_-60" vertex="1">
          <mxGeometry y="120" width="255" height="30" as="geometry" />
        </mxCell>
        <mxCell id="zV2Yj9LvBtoQlZ7fJhB_-71" value="" style="shape=partialRectangle;connectable=0;fillColor=default;top=0;left=0;bottom=0;right=0;editable=1;overflow=hidden;html=1;whiteSpace=wrap;" parent="zV2Yj9LvBtoQlZ7fJhB_-70" vertex="1">
          <mxGeometry width="60" height="30" as="geometry">
            <mxRectangle width="60" height="30" as="alternateBounds" />
          </mxGeometry>
        </mxCell>
        <mxCell id="zV2Yj9LvBtoQlZ7fJhB_-72" value="brand_code&lt;span style=&quot;white-space: pre;&quot;&gt;&#x9;&lt;span style=&quot;white-space: pre;&quot;&gt;&#x9;&lt;/span&gt;&lt;/span&gt;string" style="shape=partialRectangle;connectable=0;fillColor=default;top=0;left=0;bottom=0;right=0;align=left;spacingLeft=6;overflow=hidden;html=1;whiteSpace=wrap;" parent="zV2Yj9LvBtoQlZ7fJhB_-70" vertex="1">
          <mxGeometry x="60" width="195" height="30" as="geometry">
            <mxRectangle width="195" height="30" as="alternateBounds" />
          </mxGeometry>
        </mxCell>
        <mxCell id="zV2Yj9LvBtoQlZ7fJhB_-232" value="ref&lt;span style=&quot;white-space: pre;&quot;&gt;&#x9;&lt;/span&gt;&lt;span style=&quot;white-space: pre;&quot;&gt;&#x9;&lt;/span&gt;&lt;span style=&quot;white-space: pre;&quot;&gt;&#x9;&lt;span style=&quot;white-space: pre;&quot;&gt;&#x9;&lt;/span&gt;&lt;/span&gt;char(24)" style="shape=partialRectangle;connectable=0;fillColor=default;top=0;left=0;bottom=0;right=0;align=left;spacingLeft=6;overflow=hidden;html=1;whiteSpace=wrap;" parent="zV2Yj9LvBtoQlZ7fJhB_-264" vertex="1">
          <mxGeometry x="60" y="59.33823529411765" width="185" height="29.669117647058826" as="geometry">
            <mxRectangle width="120" height="30" as="alternateBounds" />
          </mxGeometry>
        </mxCell>
        <mxCell id="zV2Yj9LvBtoQlZ7fJhB_-233" value="" style="shape=partialRectangle;connectable=0;fillColor=default;top=0;left=0;bottom=0;right=0;editable=1;overflow=hidden;html=1;whiteSpace=wrap;" parent="zV2Yj9LvBtoQlZ7fJhB_-264" vertex="1">
          <mxGeometry y="148.34558823529412" width="60" height="29.669117647058826" as="geometry">
            <mxRectangle width="60" height="30" as="alternateBounds" />
          </mxGeometry>
        </mxCell>
        <mxCell id="zV2Yj9LvBtoQlZ7fJhB_-234" value="category&lt;span style=&quot;white-space: pre;&quot;&gt;&#x9;&lt;/span&gt;&lt;span style=&quot;white-space: pre;&quot;&gt;&#x9;&lt;span style=&quot;white-space: pre;&quot;&gt;&#x9;&lt;/span&gt;&lt;/span&gt;string" style="shape=partialRectangle;connectable=0;fillColor=default;top=0;left=0;bottom=0;right=0;align=left;spacingLeft=6;overflow=hidden;html=1;whiteSpace=wrap;" parent="zV2Yj9LvBtoQlZ7fJhB_-264" vertex="1">
          <mxGeometry x="60" y="148.34558823529412" width="195" height="29.669117647058826" as="geometry">
            <mxRectangle width="195" height="30" as="alternateBounds" />
          </mxGeometry>
        </mxCell>
        <mxCell id="zV2Yj9LvBtoQlZ7fJhB_-235" value="" style="shape=partialRectangle;connectable=0;fillColor=default;top=0;left=0;bottom=0;right=0;editable=1;overflow=hidden;html=1;whiteSpace=wrap;" parent="zV2Yj9LvBtoQlZ7fJhB_-264" vertex="1">
          <mxGeometry y="178.01470588235296" width="60" height="29.669117647058826" as="geometry">
            <mxRectangle width="60" height="30" as="alternateBounds" />
          </mxGeometry>
        </mxCell>
        <mxCell id="zV2Yj9LvBtoQlZ7fJhB_-236" value="category_code&lt;span style=&quot;white-space: pre;&quot;&gt;&#x9;&lt;/span&gt;string" style="shape=partialRectangle;connectable=0;fillColor=default;top=0;left=0;bottom=0;right=0;align=left;spacingLeft=6;overflow=hidden;html=1;whiteSpace=wrap;" parent="zV2Yj9LvBtoQlZ7fJhB_-264" vertex="1">
          <mxGeometry x="60" y="178.01470588235296" width="195" height="29.669117647058826" as="geometry">
            <mxRectangle width="195" height="30" as="alternateBounds" />
          </mxGeometry>
        </mxCell>
        <mxCell id="zV2Yj9LvBtoQlZ7fJhB_-237" value="" style="shape=partialRectangle;connectable=0;fillColor=default;top=0;left=0;bottom=0;right=0;editable=1;overflow=hidden;html=1;whiteSpace=wrap;" parent="zV2Yj9LvBtoQlZ7fJhB_-264" vertex="1">
          <mxGeometry y="207.68382352941177" width="60" height="29.669117647058826" as="geometry">
            <mxRectangle width="60" height="30" as="alternateBounds" />
          </mxGeometry>
        </mxCell>
        <mxCell id="zV2Yj9LvBtoQlZ7fJhB_-238" value="top_brand&lt;span style=&quot;white-space: pre;&quot;&gt;&#x9;&lt;/span&gt;&lt;span style=&quot;white-space: pre;&quot;&gt;&#x9;&lt;/span&gt;bool" style="shape=partialRectangle;connectable=0;fillColor=default;top=0;left=0;bottom=0;right=0;align=left;spacingLeft=6;overflow=hidden;html=1;whiteSpace=wrap;" parent="zV2Yj9LvBtoQlZ7fJhB_-264" vertex="1">
          <mxGeometry x="60" y="207.68382352941177" width="195" height="29.669117647058826" as="geometry">
            <mxRectangle width="195" height="30" as="alternateBounds" />
          </mxGeometry>
        </mxCell>
        <mxCell id="zV2Yj9LvBtoQlZ7fJhB_-270" value="" style="shape=partialRectangle;connectable=0;fillColor=default;top=0;left=0;bottom=0;right=0;editable=1;overflow=hidden;html=1;whiteSpace=wrap;" parent="zV2Yj9LvBtoQlZ7fJhB_-264" vertex="1">
          <mxGeometry y="237.3529411764706" width="60" height="28.68014705882353" as="geometry">
            <mxRectangle width="60" height="30" as="alternateBounds" />
          </mxGeometry>
        </mxCell>
        <mxCell id="zV2Yj9LvBtoQlZ7fJhB_-271" value="name&lt;span style=&quot;white-space: pre;&quot;&gt;&#x9;&lt;/span&gt;&lt;span style=&quot;white-space: pre;&quot;&gt;&#x9;&lt;/span&gt;&lt;span style=&quot;white-space: pre;&quot;&gt;&#x9;&lt;/span&gt;string" style="shape=partialRectangle;connectable=0;fillColor=default;top=0;left=0;bottom=0;right=0;align=left;spacingLeft=6;overflow=hidden;html=1;whiteSpace=wrap;" parent="zV2Yj9LvBtoQlZ7fJhB_-264" vertex="1">
          <mxGeometry x="60" y="237.3529411764706" width="195" height="28.68014705882353" as="geometry">
            <mxRectangle width="195" height="30" as="alternateBounds" />
          </mxGeometry>
        </mxCell>
        <mxCell id="zV2Yj9LvBtoQlZ7fJhB_-265" value="" style="edgeStyle=entityRelationEdgeStyle;fontSize=12;html=1;endArrow=ERoneToMany;rounded=0;exitX=1;exitY=0.5;exitDx=0;exitDy=0;entryX=0;entryY=0.5;entryDx=0;entryDy=0;" parent="1" target="zV2Yj9LvBtoQlZ7fJhB_-25" edge="1">
          <mxGeometry width="100" height="100" relative="1" as="geometry">
            <mxPoint x="645" y="-439" as="sourcePoint" />
            <mxPoint x="717" y="-399" as="targetPoint" />
            <Array as="points">
              <mxPoint x="909" y="-374" />
            </Array>
          </mxGeometry>
        </mxCell>
        <mxCell id="zV2Yj9LvBtoQlZ7fJhB_-273" value="" style="edgeStyle=entityRelationEdgeStyle;fontSize=12;html=1;endArrow=ERmandOne;startArrow=ERmandOne;rounded=0;exitX=1;exitY=0.5;exitDx=0;exitDy=0;entryX=0;entryY=0.5;entryDx=0;entryDy=0;" parent="1" source="zV2Yj9LvBtoQlZ7fJhB_-28" target="zV2Yj9LvBtoQlZ7fJhB_-60" edge="1">
          <mxGeometry width="100" height="100" relative="1" as="geometry">
            <mxPoint x="1117" y="-387" as="sourcePoint" />
            <mxPoint x="1165" y="-236" as="targetPoint" />
          </mxGeometry>
        </mxCell>
        <mxCell id="zV2Yj9LvBtoQlZ7fJhB_-280" value="" style="edgeStyle=entityRelationEdgeStyle;fontSize=12;html=1;endArrow=ERmandOne;startArrow=ERmandOne;rounded=0;exitX=1;exitY=0.5;exitDx=0;exitDy=0;entryX=0;entryY=0.5;entryDx=0;entryDy=0;" parent="1" target="zV2Yj9LvBtoQlZ7fJhB_-246" edge="1">
          <mxGeometry width="100" height="100" relative="1" as="geometry">
            <mxPoint x="1405" y="-415" as="sourcePoint" />
            <mxPoint x="1463" y="-262" as="targetPoint" />
            <Array as="points">
              <mxPoint x="1582" y="-350" />
            </Array>
          </mxGeometry>
        </mxCell>
        <mxCell id="nlKJqJRV2709YRwV2URC-1" value="" style="group" vertex="1" connectable="0" parent="1">
          <mxGeometry x="657" y="63" width="309.24" height="450" as="geometry" />
        </mxCell>
        <mxCell id="nlKJqJRV2709YRwV2URC-2" value="fact_receipts" style="shape=table;startSize=30;container=1;collapsible=1;childLayout=tableLayout;fixedRows=1;rowLines=0;fontStyle=1;align=center;resizeLast=1;html=1;whiteSpace=wrap;fillColor=default;" vertex="1" parent="nlKJqJRV2709YRwV2URC-1">
          <mxGeometry width="307" height="390" as="geometry" />
        </mxCell>
        <mxCell id="nlKJqJRV2709YRwV2URC-3" value="" style="shape=tableRow;horizontal=0;startSize=0;swimlaneHead=0;swimlaneBody=0;fillColor=none;collapsible=0;dropTarget=0;points=[[0,0.5],[1,0.5]];portConstraint=eastwest;top=0;left=0;right=0;bottom=0;html=1;" vertex="1" parent="nlKJqJRV2709YRwV2URC-2">
          <mxGeometry y="30" width="307" height="30" as="geometry" />
        </mxCell>
        <mxCell id="nlKJqJRV2709YRwV2URC-4" value="PK" style="shape=partialRectangle;connectable=0;fillColor=default;top=0;left=0;bottom=0;right=0;fontStyle=1;overflow=hidden;html=1;whiteSpace=wrap;" vertex="1" parent="nlKJqJRV2709YRwV2URC-3">
          <mxGeometry width="60" height="30" as="geometry">
            <mxRectangle width="60" height="30" as="alternateBounds" />
          </mxGeometry>
        </mxCell>
        <mxCell id="nlKJqJRV2709YRwV2URC-5" value="receipt_id" style="shape=partialRectangle;connectable=0;fillColor=default;top=0;left=0;bottom=0;right=0;align=left;spacingLeft=6;fontStyle=5;overflow=hidden;html=1;whiteSpace=wrap;" vertex="1" parent="nlKJqJRV2709YRwV2URC-3">
          <mxGeometry x="60" width="247" height="30" as="geometry">
            <mxRectangle width="247" height="30" as="alternateBounds" />
          </mxGeometry>
        </mxCell>
        <mxCell id="nlKJqJRV2709YRwV2URC-6" value="" style="shape=tableRow;horizontal=0;startSize=0;swimlaneHead=0;swimlaneBody=0;fillColor=none;collapsible=0;dropTarget=0;points=[[0,0.5],[1,0.5]];portConstraint=eastwest;top=0;left=0;right=0;bottom=1;html=1;" vertex="1" parent="nlKJqJRV2709YRwV2URC-2">
          <mxGeometry y="60" width="307" height="30" as="geometry" />
        </mxCell>
        <mxCell id="nlKJqJRV2709YRwV2URC-7" value="FK" style="shape=partialRectangle;connectable=0;fillColor=default;top=0;left=0;bottom=0;right=0;fontStyle=1;overflow=hidden;html=1;whiteSpace=wrap;" vertex="1" parent="nlKJqJRV2709YRwV2URC-6">
          <mxGeometry width="60" height="30" as="geometry">
            <mxRectangle width="60" height="30" as="alternateBounds" />
          </mxGeometry>
        </mxCell>
        <mxCell id="nlKJqJRV2709YRwV2URC-8" value="user_id" style="shape=partialRectangle;connectable=0;fillColor=default;top=0;left=0;bottom=0;right=0;align=left;spacingLeft=6;fontStyle=5;overflow=hidden;html=1;whiteSpace=wrap;" vertex="1" parent="nlKJqJRV2709YRwV2URC-6">
          <mxGeometry x="60" width="247" height="30" as="geometry">
            <mxRectangle width="247" height="30" as="alternateBounds" />
          </mxGeometry>
        </mxCell>
        <mxCell id="nlKJqJRV2709YRwV2URC-9" value="" style="shape=tableRow;horizontal=0;startSize=0;swimlaneHead=0;swimlaneBody=0;fillColor=none;collapsible=0;dropTarget=0;points=[[0,0.5],[1,0.5]];portConstraint=eastwest;top=0;left=0;right=0;bottom=0;html=1;" vertex="1" parent="nlKJqJRV2709YRwV2URC-2">
          <mxGeometry y="90" width="307" height="30" as="geometry" />
        </mxCell>
        <mxCell id="nlKJqJRV2709YRwV2URC-10" value="&lt;b&gt;FK&lt;/b&gt;" style="shape=partialRectangle;connectable=0;fillColor=default;top=0;left=0;bottom=0;right=0;editable=1;overflow=hidden;html=1;whiteSpace=wrap;" vertex="1" parent="nlKJqJRV2709YRwV2URC-9">
          <mxGeometry width="60" height="30" as="geometry">
            <mxRectangle width="60" height="30" as="alternateBounds" />
          </mxGeometry>
        </mxCell>
        <mxCell id="nlKJqJRV2709YRwV2URC-11" value="brand_id&lt;span style=&quot;white-space: pre;&quot;&gt;&#x9;&lt;/span&gt;&lt;span style=&quot;white-space: pre;&quot;&gt;&#x9;&lt;/span&gt;&lt;span style=&quot;white-space: pre;&quot;&gt;&#x9;&lt;/span&gt;&lt;span style=&quot;white-space: pre;&quot;&gt;&#x9;&lt;/span&gt;&lt;span style=&quot;white-space: pre;&quot;&gt;&#x9;&lt;/span&gt;int" style="shape=partialRectangle;connectable=0;fillColor=default;top=0;left=0;bottom=0;right=0;align=left;spacingLeft=6;overflow=hidden;html=1;whiteSpace=wrap;" vertex="1" parent="nlKJqJRV2709YRwV2URC-9">
          <mxGeometry x="60" width="247" height="30" as="geometry">
            <mxRectangle width="247" height="30" as="alternateBounds" />
          </mxGeometry>
        </mxCell>
        <mxCell id="nlKJqJRV2709YRwV2URC-12" value="" style="shape=tableRow;horizontal=0;startSize=0;swimlaneHead=0;swimlaneBody=0;fillColor=none;collapsible=0;dropTarget=0;points=[[0,0.5],[1,0.5]];portConstraint=eastwest;top=0;left=0;right=0;bottom=0;html=1;" vertex="1" parent="nlKJqJRV2709YRwV2URC-2">
          <mxGeometry y="120" width="307" height="30" as="geometry" />
        </mxCell>
        <mxCell id="nlKJqJRV2709YRwV2URC-13" value="" style="shape=partialRectangle;connectable=0;fillColor=default;top=0;left=0;bottom=0;right=0;editable=1;overflow=hidden;html=1;whiteSpace=wrap;" vertex="1" parent="nlKJqJRV2709YRwV2URC-12">
          <mxGeometry width="60" height="30" as="geometry">
            <mxRectangle width="60" height="30" as="alternateBounds" />
          </mxGeometry>
        </mxCell>
        <mxCell id="nlKJqJRV2709YRwV2URC-14" value="" style="shape=partialRectangle;connectable=0;fillColor=default;top=0;left=0;bottom=0;right=0;align=left;spacingLeft=6;overflow=hidden;html=1;whiteSpace=wrap;" vertex="1" parent="nlKJqJRV2709YRwV2URC-12">
          <mxGeometry x="60" width="247" height="30" as="geometry">
            <mxRectangle width="247" height="30" as="alternateBounds" />
          </mxGeometry>
        </mxCell>
        <mxCell id="nlKJqJRV2709YRwV2URC-15" value="FK" style="shape=partialRectangle;connectable=0;fillColor=default;top=0;left=0;bottom=0;right=0;editable=1;overflow=hidden;html=1;whiteSpace=wrap;" vertex="1" parent="nlKJqJRV2709YRwV2URC-1">
          <mxGeometry y="149" width="60" height="30" as="geometry">
            <mxRectangle width="60" height="30" as="alternateBounds" />
          </mxGeometry>
        </mxCell>
        <mxCell id="nlKJqJRV2709YRwV2URC-16" value="create_date&lt;span style=&quot;white-space: pre;&quot;&gt;&#x9;&lt;/span&gt;&lt;span style=&quot;white-space: pre;&quot;&gt;&#x9;&lt;/span&gt;&lt;span style=&quot;white-space: pre;&quot;&gt;&#x9;&lt;/span&gt;&lt;span style=&quot;white-space: pre;&quot;&gt;&#x9;&lt;/span&gt;int" style="shape=partialRectangle;connectable=0;fillColor=default;top=0;left=0;bottom=0;right=0;align=left;spacingLeft=6;overflow=hidden;html=1;whiteSpace=wrap;" vertex="1" parent="nlKJqJRV2709YRwV2URC-1">
          <mxGeometry x="60" y="149" width="246" height="30" as="geometry">
            <mxRectangle width="120" height="30" as="alternateBounds" />
          </mxGeometry>
        </mxCell>
        <mxCell id="nlKJqJRV2709YRwV2URC-17" value="FK" style="shape=partialRectangle;connectable=0;fillColor=default;top=0;left=0;bottom=0;right=0;editable=1;overflow=hidden;html=1;whiteSpace=wrap;" vertex="1" parent="nlKJqJRV2709YRwV2URC-1">
          <mxGeometry x="0.2400000000000091" y="209" width="60" height="30" as="geometry">
            <mxRectangle width="60" height="30" as="alternateBounds" />
          </mxGeometry>
        </mxCell>
        <mxCell id="nlKJqJRV2709YRwV2URC-18" value="finished_date&lt;span style=&quot;white-space: pre;&quot;&gt;&#x9;&lt;/span&gt;&lt;span style=&quot;white-space: pre;&quot;&gt;&#x9;&lt;/span&gt;&lt;span style=&quot;white-space: pre;&quot;&gt;&#x9;&lt;/span&gt;&lt;span style=&quot;white-space: pre;&quot;&gt;&#x9;&lt;/span&gt;int" style="shape=partialRectangle;connectable=0;fillColor=default;top=0;left=0;bottom=0;right=0;align=left;spacingLeft=6;overflow=hidden;html=1;whiteSpace=wrap;" vertex="1" parent="nlKJqJRV2709YRwV2URC-1">
          <mxGeometry x="60.24000000000001" y="209" width="245.76" height="30" as="geometry">
            <mxRectangle width="157.75862068965512" height="30" as="alternateBounds" />
          </mxGeometry>
        </mxCell>
        <mxCell id="nlKJqJRV2709YRwV2URC-19" value="FK" style="shape=partialRectangle;connectable=0;fillColor=default;top=0;left=0;bottom=0;right=0;editable=1;overflow=hidden;html=1;whiteSpace=wrap;" vertex="1" parent="nlKJqJRV2709YRwV2URC-1">
          <mxGeometry x="0.2400000000000091" y="239" width="60" height="30" as="geometry">
            <mxRectangle width="60" height="30" as="alternateBounds" />
          </mxGeometry>
        </mxCell>
        <mxCell id="nlKJqJRV2709YRwV2URC-20" value="" style="shape=partialRectangle;connectable=0;fillColor=default;top=0;left=0;bottom=0;right=0;align=left;spacingLeft=6;overflow=hidden;html=1;whiteSpace=wrap;" vertex="1" parent="nlKJqJRV2709YRwV2URC-1">
          <mxGeometry x="60.24000000000001" y="239" width="245.76" height="30" as="geometry">
            <mxRectangle width="157.75862068965512" height="30" as="alternateBounds" />
          </mxGeometry>
        </mxCell>
        <mxCell id="nlKJqJRV2709YRwV2URC-21" value="FK" style="shape=partialRectangle;connectable=0;fillColor=default;top=0;left=0;bottom=0;right=0;editable=1;overflow=hidden;html=1;whiteSpace=wrap;" vertex="1" parent="nlKJqJRV2709YRwV2URC-1">
          <mxGeometry x="0.2400000000000091" y="269" width="60" height="30" as="geometry">
            <mxRectangle width="60" height="30" as="alternateBounds" />
          </mxGeometry>
        </mxCell>
        <mxCell id="nlKJqJRV2709YRwV2URC-22" value="points_awarded_date&lt;span style=&quot;white-space: pre;&quot;&gt;&#x9;&lt;/span&gt;&lt;span style=&quot;white-space: pre;&quot;&gt;&#x9;&lt;/span&gt;int" style="shape=partialRectangle;connectable=0;fillColor=default;top=0;left=0;bottom=0;right=0;align=left;spacingLeft=6;overflow=hidden;html=1;whiteSpace=wrap;" vertex="1" parent="nlKJqJRV2709YRwV2URC-1">
          <mxGeometry x="60.24000000000001" y="269" width="245.76" height="30" as="geometry">
            <mxRectangle width="157.75862068965512" height="30" as="alternateBounds" />
          </mxGeometry>
        </mxCell>
        <mxCell id="nlKJqJRV2709YRwV2URC-23" value="" style="shape=partialRectangle;connectable=0;fillColor=default;top=0;left=0;bottom=0;right=0;editable=1;overflow=hidden;html=1;whiteSpace=wrap;" vertex="1" parent="nlKJqJRV2709YRwV2URC-1">
          <mxGeometry x="0.2400000000000091" y="299" width="60" height="30" as="geometry">
            <mxRectangle width="60" height="30" as="alternateBounds" />
          </mxGeometry>
        </mxCell>
        <mxCell id="nlKJqJRV2709YRwV2URC-24" value="points_earned&lt;span style=&quot;white-space: pre;&quot;&gt;&#x9;&lt;/span&gt;&lt;span style=&quot;white-space: pre;&quot;&gt;&#x9;&lt;/span&gt;&lt;span style=&quot;white-space: pre;&quot;&gt;&#x9;&lt;/span&gt;&lt;span style=&quot;white-space: pre;&quot;&gt;&#x9;&lt;/span&gt;int" style="shape=partialRectangle;connectable=0;fillColor=default;top=0;left=0;bottom=0;right=0;align=left;spacingLeft=6;overflow=hidden;html=1;whiteSpace=wrap;" vertex="1" parent="nlKJqJRV2709YRwV2URC-1">
          <mxGeometry x="60.24000000000001" y="299" width="245.76" height="30" as="geometry">
            <mxRectangle width="157.75862068965512" height="30" as="alternateBounds" />
          </mxGeometry>
        </mxCell>
        <mxCell id="nlKJqJRV2709YRwV2URC-25" value="" style="shape=partialRectangle;connectable=0;fillColor=default;top=0;left=0;bottom=0;right=0;editable=1;overflow=hidden;html=1;whiteSpace=wrap;" vertex="1" parent="nlKJqJRV2709YRwV2URC-1">
          <mxGeometry x="0.2400000000000091" y="329" width="60" height="30" as="geometry">
            <mxRectangle width="60" height="30" as="alternateBounds" />
          </mxGeometry>
        </mxCell>
        <mxCell id="nlKJqJRV2709YRwV2URC-27" value="" style="shape=partialRectangle;connectable=0;fillColor=default;top=0;left=0;bottom=0;right=0;editable=1;overflow=hidden;html=1;whiteSpace=wrap;" vertex="1" parent="nlKJqJRV2709YRwV2URC-1">
          <mxGeometry x="0.2400000000000091" y="359" width="60" height="30" as="geometry">
            <mxRectangle width="60" height="30" as="alternateBounds" />
          </mxGeometry>
        </mxCell>
        <mxCell id="nlKJqJRV2709YRwV2URC-28" value="purchase_item_count&lt;span style=&quot;white-space: pre;&quot;&gt;&#x9;&lt;/span&gt;&lt;span style=&quot;white-space: pre;&quot;&gt;&#x9;&lt;/span&gt;int" style="shape=partialRectangle;connectable=0;fillColor=default;top=0;left=0;bottom=0;right=0;align=left;spacingLeft=6;overflow=hidden;html=1;whiteSpace=wrap;" vertex="1" parent="nlKJqJRV2709YRwV2URC-1">
          <mxGeometry x="60.24000000000001" y="359" width="245.76" height="30" as="geometry">
            <mxRectangle width="157.75862068965512" height="30" as="alternateBounds" />
          </mxGeometry>
        </mxCell>
        <mxCell id="nlKJqJRV2709YRwV2URC-30" value="reward_receipt_status&lt;span style=&quot;white-space: pre;&quot;&gt;&#x9;&lt;/span&gt;&lt;span style=&quot;white-space: pre;&quot;&gt;&#x9;&lt;/span&gt;int" style="shape=partialRectangle;connectable=0;fillColor=default;top=0;left=0;bottom=0;right=0;align=left;spacingLeft=6;overflow=hidden;html=1;whiteSpace=wrap;" vertex="1" parent="nlKJqJRV2709YRwV2URC-1">
          <mxGeometry x="62.24000000000001" y="390" width="244.76" height="30" as="geometry">
            <mxRectangle width="157.75862068965512" height="30" as="alternateBounds" />
          </mxGeometry>
        </mxCell>
        <mxCell id="nlKJqJRV2709YRwV2URC-31" value="scanned_date&lt;span style=&quot;white-space: pre;&quot;&gt;&#x9;&lt;/span&gt;&lt;span style=&quot;white-space: pre;&quot;&gt;&#x9;&lt;/span&gt;&lt;span style=&quot;white-space: pre;&quot;&gt;&#x9;&lt;/span&gt;&lt;span style=&quot;white-space: pre;&quot;&gt;&#x9;&lt;/span&gt;int" style="shape=partialRectangle;connectable=0;fillColor=default;top=0;left=0;bottom=0;right=0;align=left;spacingLeft=6;overflow=hidden;html=1;whiteSpace=wrap;" vertex="1" parent="nlKJqJRV2709YRwV2URC-1">
          <mxGeometry x="60" y="179" width="246" height="30" as="geometry">
            <mxRectangle width="157.75862068965512" height="30" as="alternateBounds" />
          </mxGeometry>
        </mxCell>
        <mxCell id="nlKJqJRV2709YRwV2URC-32" value="FK" style="shape=partialRectangle;connectable=0;fillColor=default;top=0;left=0;bottom=0;right=0;editable=1;overflow=hidden;html=1;whiteSpace=wrap;" vertex="1" parent="nlKJqJRV2709YRwV2URC-1">
          <mxGeometry x="0.2400000000000091" y="179" width="60" height="30" as="geometry">
            <mxRectangle width="60" height="30" as="alternateBounds" />
          </mxGeometry>
        </mxCell>
        <mxCell id="nlKJqJRV2709YRwV2URC-34" value="total_spent&lt;span style=&quot;white-space: pre;&quot;&gt;&#x9;&lt;/span&gt;&lt;span style=&quot;white-space: pre;&quot;&gt;&#x9;&lt;/span&gt;&lt;span style=&quot;white-space: pre;&quot;&gt;&#x9;&lt;/span&gt;&lt;span style=&quot;white-space: pre;&quot;&gt;&#x9;&lt;/span&gt;int" style="shape=partialRectangle;connectable=0;fillColor=default;top=0;left=0;bottom=0;right=0;align=left;spacingLeft=6;overflow=hidden;html=1;whiteSpace=wrap;" vertex="1" parent="nlKJqJRV2709YRwV2URC-1">
          <mxGeometry x="60.00000000000001" y="329" width="244.76" height="30" as="geometry">
            <mxRectangle width="157.75862068965512" height="30" as="alternateBounds" />
          </mxGeometry>
        </mxCell>
        <mxCell id="nlKJqJRV2709YRwV2URC-71" value="purchase_date&lt;span style=&quot;white-space: pre;&quot;&gt;&#x9;&lt;/span&gt;&lt;span style=&quot;white-space: pre;&quot;&gt;&#x9;&lt;span style=&quot;white-space: pre;&quot;&gt;&#x9;&lt;/span&gt;i&lt;/span&gt;nt" style="shape=partialRectangle;connectable=0;fillColor=default;top=0;left=0;bottom=0;right=0;align=left;spacingLeft=6;overflow=hidden;html=1;whiteSpace=wrap;" vertex="1" parent="nlKJqJRV2709YRwV2URC-1">
          <mxGeometry x="61.24000000000001" y="237" width="245.76" height="30" as="geometry">
            <mxRectangle width="157.75862068965512" height="30" as="alternateBounds" />
          </mxGeometry>
        </mxCell>
        <mxCell id="nlKJqJRV2709YRwV2URC-72" value="bonus_points_earned&lt;span style=&quot;white-space: pre;&quot;&gt;&#x9;&lt;/span&gt;&lt;span style=&quot;white-space: pre;&quot;&gt;&#x9;&lt;/span&gt;int" style="shape=partialRectangle;connectable=0;fillColor=default;top=0;left=0;bottom=0;right=0;align=left;spacingLeft=6;overflow=hidden;html=1;whiteSpace=wrap;" vertex="1" parent="nlKJqJRV2709YRwV2URC-1">
          <mxGeometry x="62.24000000000001" y="119" width="247" height="30" as="geometry">
            <mxRectangle width="247" height="30" as="alternateBounds" />
          </mxGeometry>
        </mxCell>
        <mxCell id="nlKJqJRV2709YRwV2URC-97" value="" style="shape=partialRectangle;connectable=0;fillColor=default;top=0;left=0;bottom=0;right=0;editable=1;overflow=hidden;html=1;whiteSpace=wrap;" vertex="1" parent="nlKJqJRV2709YRwV2URC-1">
          <mxGeometry x="2.240000000000009" y="389" width="60" height="30" as="geometry">
            <mxRectangle width="60" height="30" as="alternateBounds" />
          </mxGeometry>
        </mxCell>
        <mxCell id="nlKJqJRV2709YRwV2URC-35" value="&lt;font style=&quot;font-size: 16px;&quot;&gt;&lt;b&gt;Initial Data Load&lt;/b&gt;&lt;/font&gt;" style="rounded=1;whiteSpace=wrap;html=1;" vertex="1" parent="1">
          <mxGeometry x="631" y="-572" width="166" height="53" as="geometry" />
        </mxCell>
        <mxCell id="nlKJqJRV2709YRwV2URC-70" value="&lt;span style=&quot;font-size: 16px;&quot;&gt;&lt;b&gt;Star Schema&lt;/b&gt;&lt;/span&gt;" style="rounded=1;whiteSpace=wrap;html=1;" vertex="1" parent="1">
          <mxGeometry x="701" y="-14" width="166" height="53" as="geometry" />
        </mxCell>
        <mxCell id="nlKJqJRV2709YRwV2URC-74" value="" style="group" vertex="1" connectable="0" parent="1">
          <mxGeometry x="1156" y="69" width="255" height="269.0029411764706" as="geometry" />
        </mxCell>
        <mxCell id="nlKJqJRV2709YRwV2URC-75" value="brands" style="shape=table;startSize=30;container=1;collapsible=1;childLayout=tableLayout;fixedRows=1;rowLines=0;fontStyle=1;align=center;resizeLast=1;html=1;whiteSpace=wrap;fillColor=#FFFFFF;gradientColor=none;" vertex="1" parent="nlKJqJRV2709YRwV2URC-74">
          <mxGeometry width="255" height="269" as="geometry" />
        </mxCell>
        <mxCell id="nlKJqJRV2709YRwV2URC-76" value="" style="shape=tableRow;horizontal=0;startSize=0;swimlaneHead=0;swimlaneBody=0;fillColor=none;collapsible=0;dropTarget=0;points=[[0,0.5],[1,0.5]];portConstraint=eastwest;top=0;left=0;right=0;bottom=0;html=1;" vertex="1" parent="nlKJqJRV2709YRwV2URC-75">
          <mxGeometry y="30" width="255" height="30" as="geometry" />
        </mxCell>
        <mxCell id="nlKJqJRV2709YRwV2URC-77" value="PK" style="shape=partialRectangle;connectable=0;fillColor=default;top=0;left=0;bottom=0;right=0;fontStyle=1;overflow=hidden;html=1;whiteSpace=wrap;" vertex="1" parent="nlKJqJRV2709YRwV2URC-76">
          <mxGeometry width="60" height="30" as="geometry">
            <mxRectangle width="60" height="30" as="alternateBounds" />
          </mxGeometry>
        </mxCell>
        <mxCell id="nlKJqJRV2709YRwV2URC-78" value="brand_id&lt;span style=&quot;white-space: pre;&quot;&gt;&#x9;&lt;span style=&quot;white-space: pre;&quot;&gt;&#x9;&lt;span style=&quot;white-space: pre;&quot;&gt;&#x9;&lt;span style=&quot;white-space: pre;&quot;&gt;&#x9;&lt;/span&gt;&lt;/span&gt;&lt;/span&gt;&lt;/span&gt;char(24)" style="shape=partialRectangle;connectable=0;fillColor=default;top=0;left=0;bottom=0;right=0;align=left;spacingLeft=6;fontStyle=5;overflow=hidden;html=1;whiteSpace=wrap;" vertex="1" parent="nlKJqJRV2709YRwV2URC-76">
          <mxGeometry x="60" width="195" height="30" as="geometry">
            <mxRectangle width="195" height="30" as="alternateBounds" />
          </mxGeometry>
        </mxCell>
        <mxCell id="nlKJqJRV2709YRwV2URC-79" value="" style="shape=tableRow;horizontal=0;startSize=0;swimlaneHead=0;swimlaneBody=0;fillColor=none;collapsible=0;dropTarget=0;points=[[0,0.5],[1,0.5]];portConstraint=eastwest;top=0;left=0;right=0;bottom=1;html=1;" vertex="1" parent="nlKJqJRV2709YRwV2URC-75">
          <mxGeometry y="60" width="255" height="30" as="geometry" />
        </mxCell>
        <mxCell id="nlKJqJRV2709YRwV2URC-80" value="" style="shape=partialRectangle;connectable=0;fillColor=default;top=0;left=0;bottom=0;right=0;fontStyle=1;overflow=hidden;html=1;whiteSpace=wrap;" vertex="1" parent="nlKJqJRV2709YRwV2URC-79">
          <mxGeometry width="60" height="30" as="geometry">
            <mxRectangle width="60" height="30" as="alternateBounds" />
          </mxGeometry>
        </mxCell>
        <mxCell id="nlKJqJRV2709YRwV2URC-81" value="" style="shape=partialRectangle;connectable=0;fillColor=default;top=0;left=0;bottom=0;right=0;align=left;spacingLeft=6;fontStyle=5;overflow=hidden;html=1;whiteSpace=wrap;" vertex="1" parent="nlKJqJRV2709YRwV2URC-79">
          <mxGeometry x="60" width="195" height="30" as="geometry">
            <mxRectangle width="195" height="30" as="alternateBounds" />
          </mxGeometry>
        </mxCell>
        <mxCell id="nlKJqJRV2709YRwV2URC-82" value="" style="shape=tableRow;horizontal=0;startSize=0;swimlaneHead=0;swimlaneBody=0;fillColor=none;collapsible=0;dropTarget=0;points=[[0,0.5],[1,0.5]];portConstraint=eastwest;top=0;left=0;right=0;bottom=0;html=1;" vertex="1" parent="nlKJqJRV2709YRwV2URC-75">
          <mxGeometry y="90" width="255" height="30" as="geometry" />
        </mxCell>
        <mxCell id="nlKJqJRV2709YRwV2URC-83" value="" style="shape=partialRectangle;connectable=0;fillColor=default;top=0;left=0;bottom=0;right=0;editable=1;overflow=hidden;html=1;whiteSpace=wrap;" vertex="1" parent="nlKJqJRV2709YRwV2URC-82">
          <mxGeometry width="60" height="30" as="geometry">
            <mxRectangle width="60" height="30" as="alternateBounds" />
          </mxGeometry>
        </mxCell>
        <mxCell id="nlKJqJRV2709YRwV2URC-84" value="barcode&lt;span style=&quot;white-space: pre;&quot;&gt;&#x9;&lt;/span&gt;&lt;span style=&quot;white-space: pre;&quot;&gt;&#x9;&lt;/span&gt;&lt;span style=&quot;white-space: pre;&quot;&gt;&#x9;&lt;span style=&quot;white-space: pre;&quot;&gt;&#x9;&lt;/span&gt;&lt;/span&gt;string" style="shape=partialRectangle;connectable=0;fillColor=default;top=0;left=0;bottom=0;right=0;align=left;spacingLeft=6;overflow=hidden;html=1;whiteSpace=wrap;" vertex="1" parent="nlKJqJRV2709YRwV2URC-82">
          <mxGeometry x="60" width="195" height="30" as="geometry">
            <mxRectangle width="195" height="30" as="alternateBounds" />
          </mxGeometry>
        </mxCell>
        <mxCell id="nlKJqJRV2709YRwV2URC-85" value="" style="shape=tableRow;horizontal=0;startSize=0;swimlaneHead=0;swimlaneBody=0;fillColor=none;collapsible=0;dropTarget=0;points=[[0,0.5],[1,0.5]];portConstraint=eastwest;top=0;left=0;right=0;bottom=0;html=1;" vertex="1" parent="nlKJqJRV2709YRwV2URC-75">
          <mxGeometry y="120" width="255" height="30" as="geometry" />
        </mxCell>
        <mxCell id="nlKJqJRV2709YRwV2URC-86" value="" style="shape=partialRectangle;connectable=0;fillColor=default;top=0;left=0;bottom=0;right=0;editable=1;overflow=hidden;html=1;whiteSpace=wrap;" vertex="1" parent="nlKJqJRV2709YRwV2URC-85">
          <mxGeometry width="60" height="30" as="geometry">
            <mxRectangle width="60" height="30" as="alternateBounds" />
          </mxGeometry>
        </mxCell>
        <mxCell id="nlKJqJRV2709YRwV2URC-87" value="brand_code&lt;span style=&quot;white-space: pre;&quot;&gt;&#x9;&lt;span style=&quot;white-space: pre;&quot;&gt;&#x9;&lt;span style=&quot;white-space: pre;&quot;&gt;&#x9;&lt;/span&gt;&lt;/span&gt;&lt;/span&gt;string" style="shape=partialRectangle;connectable=0;fillColor=default;top=0;left=0;bottom=0;right=0;align=left;spacingLeft=6;overflow=hidden;html=1;whiteSpace=wrap;" vertex="1" parent="nlKJqJRV2709YRwV2URC-85">
          <mxGeometry x="60" width="195" height="30" as="geometry">
            <mxRectangle width="195" height="30" as="alternateBounds" />
          </mxGeometry>
        </mxCell>
        <mxCell id="nlKJqJRV2709YRwV2URC-89" value="" style="shape=partialRectangle;connectable=0;fillColor=default;top=0;left=0;bottom=0;right=0;editable=1;overflow=hidden;html=1;whiteSpace=wrap;" vertex="1" parent="nlKJqJRV2709YRwV2URC-74">
          <mxGeometry y="148.34558823529412" width="60" height="29.669117647058826" as="geometry">
            <mxRectangle width="60" height="30" as="alternateBounds" />
          </mxGeometry>
        </mxCell>
        <mxCell id="nlKJqJRV2709YRwV2URC-90" value="category&lt;span style=&quot;white-space: pre;&quot;&gt;&#x9;&lt;/span&gt;&lt;span style=&quot;white-space: pre;&quot;&gt;&#x9;&lt;span style=&quot;white-space: pre;&quot;&gt;&#x9;&lt;span style=&quot;white-space: pre;&quot;&gt;&#x9;&lt;/span&gt;&lt;/span&gt;&lt;/span&gt;string" style="shape=partialRectangle;connectable=0;fillColor=default;top=0;left=0;bottom=0;right=0;align=left;spacingLeft=6;overflow=hidden;html=1;whiteSpace=wrap;" vertex="1" parent="nlKJqJRV2709YRwV2URC-74">
          <mxGeometry x="60" y="148.34558823529412" width="195" height="29.669117647058826" as="geometry">
            <mxRectangle width="195" height="30" as="alternateBounds" />
          </mxGeometry>
        </mxCell>
        <mxCell id="nlKJqJRV2709YRwV2URC-91" value="" style="shape=partialRectangle;connectable=0;fillColor=default;top=0;left=0;bottom=0;right=0;editable=1;overflow=hidden;html=1;whiteSpace=wrap;" vertex="1" parent="nlKJqJRV2709YRwV2URC-74">
          <mxGeometry y="178.01470588235296" width="60" height="29.669117647058826" as="geometry">
            <mxRectangle width="60" height="30" as="alternateBounds" />
          </mxGeometry>
        </mxCell>
        <mxCell id="nlKJqJRV2709YRwV2URC-92" value="category_code&lt;span style=&quot;white-space: pre;&quot;&gt;&#x9;&lt;span style=&quot;white-space: pre;&quot;&gt;&#x9;&lt;/span&gt;&lt;/span&gt;string" style="shape=partialRectangle;connectable=0;fillColor=default;top=0;left=0;bottom=0;right=0;align=left;spacingLeft=6;overflow=hidden;html=1;whiteSpace=wrap;" vertex="1" parent="nlKJqJRV2709YRwV2URC-74">
          <mxGeometry x="60" y="178.01470588235296" width="195" height="29.669117647058826" as="geometry">
            <mxRectangle width="195" height="30" as="alternateBounds" />
          </mxGeometry>
        </mxCell>
        <mxCell id="nlKJqJRV2709YRwV2URC-93" value="" style="shape=partialRectangle;connectable=0;fillColor=default;top=0;left=0;bottom=0;right=0;editable=1;overflow=hidden;html=1;whiteSpace=wrap;" vertex="1" parent="nlKJqJRV2709YRwV2URC-74">
          <mxGeometry y="207.68382352941177" width="60" height="29.669117647058826" as="geometry">
            <mxRectangle width="60" height="30" as="alternateBounds" />
          </mxGeometry>
        </mxCell>
        <mxCell id="nlKJqJRV2709YRwV2URC-94" value="top_brand&lt;span style=&quot;white-space: pre;&quot;&gt;&#x9;&lt;/span&gt;&lt;span style=&quot;white-space: pre;&quot;&gt;&#x9;&lt;span style=&quot;white-space: pre;&quot;&gt;&#x9;&lt;/span&gt;&lt;/span&gt;bool" style="shape=partialRectangle;connectable=0;fillColor=default;top=0;left=0;bottom=0;right=0;align=left;spacingLeft=6;overflow=hidden;html=1;whiteSpace=wrap;" vertex="1" parent="nlKJqJRV2709YRwV2URC-74">
          <mxGeometry x="60" y="59.00382352941176" width="195" height="29.669117647058826" as="geometry">
            <mxRectangle width="195" height="30" as="alternateBounds" />
          </mxGeometry>
        </mxCell>
        <mxCell id="nlKJqJRV2709YRwV2URC-96" value="brand_name&lt;span style=&quot;white-space: pre;&quot;&gt;&#x9;&lt;/span&gt;&lt;span style=&quot;white-space: pre;&quot;&gt;&#x9;&lt;span style=&quot;white-space: pre;&quot;&gt;&#x9;&lt;/span&gt;&lt;/span&gt;string" style="shape=partialRectangle;connectable=0;fillColor=default;top=0;left=0;bottom=0;right=0;align=left;spacingLeft=6;overflow=hidden;html=1;whiteSpace=wrap;" vertex="1" parent="nlKJqJRV2709YRwV2URC-74">
          <mxGeometry x="60" y="207.6829411764706" width="195" height="28.68014705882353" as="geometry">
            <mxRectangle width="195" height="30" as="alternateBounds" />
          </mxGeometry>
        </mxCell>
        <mxCell id="nlKJqJRV2709YRwV2URC-99" value="" style="shape=partialRectangle;connectable=0;fillColor=default;top=0;left=0;bottom=0;right=0;editable=1;overflow=hidden;html=1;whiteSpace=wrap;" vertex="1" parent="nlKJqJRV2709YRwV2URC-74">
          <mxGeometry y="239.33382352941175" width="60" height="29.669117647058826" as="geometry">
            <mxRectangle width="60" height="30" as="alternateBounds" />
          </mxGeometry>
        </mxCell>
        <mxCell id="nlKJqJRV2709YRwV2URC-100" value="record_created_date&lt;span style=&quot;white-space: pre;&quot;&gt;&#x9;&lt;/span&gt;int" style="shape=partialRectangle;connectable=0;fillColor=default;top=0;left=0;bottom=0;right=0;align=left;spacingLeft=6;overflow=hidden;html=1;whiteSpace=wrap;" vertex="1" parent="nlKJqJRV2709YRwV2URC-74">
          <mxGeometry x="60" y="237.35294117647058" width="195" height="28.68014705882353" as="geometry">
            <mxRectangle width="195" height="30" as="alternateBounds" />
          </mxGeometry>
        </mxCell>
        <mxCell id="nlKJqJRV2709YRwV2URC-98" style="edgeStyle=orthogonalEdgeStyle;rounded=0;orthogonalLoop=1;jettySize=auto;html=1;exitX=0;exitY=0.5;exitDx=0;exitDy=0;entryX=1;entryY=0.733;entryDx=0;entryDy=0;entryPerimeter=0;" edge="1" parent="1" source="nlKJqJRV2709YRwV2URC-76" target="nlKJqJRV2709YRwV2URC-9">
          <mxGeometry relative="1" as="geometry">
            <mxPoint x="969" y="172" as="targetPoint" />
          </mxGeometry>
        </mxCell>
        <mxCell id="nlKJqJRV2709YRwV2URC-101" value="" style="shape=partialRectangle;connectable=0;fillColor=default;top=0;left=0;bottom=0;right=0;editable=1;overflow=hidden;html=1;whiteSpace=wrap;" vertex="1" parent="1">
          <mxGeometry x="1154" y="338.00382352941176" width="60" height="29.669117647058826" as="geometry">
            <mxRectangle width="60" height="30" as="alternateBounds" />
          </mxGeometry>
        </mxCell>
        <mxCell id="nlKJqJRV2709YRwV2URC-102" value="record_end_date&lt;span style=&quot;white-space: pre;&quot;&gt;&#x9;&lt;/span&gt;&lt;span style=&quot;white-space: pre;&quot;&gt;&#x9;&lt;/span&gt;int" style="shape=partialRectangle;connectable=0;fillColor=default;top=0;left=0;bottom=0;right=0;align=left;spacingLeft=6;overflow=hidden;html=1;whiteSpace=wrap;" vertex="1" parent="1">
          <mxGeometry x="1214" y="338.0029411764706" width="195" height="28.68014705882353" as="geometry">
            <mxRectangle width="195" height="30" as="alternateBounds" />
          </mxGeometry>
        </mxCell>
        <mxCell id="nlKJqJRV2709YRwV2URC-103" value="dim_date" style="shape=table;startSize=30;container=1;collapsible=1;childLayout=tableLayout;fixedRows=1;rowLines=0;fontStyle=1;align=center;resizeLast=1;html=1;" vertex="1" parent="1">
          <mxGeometry x="139" y="45" width="180" height="150" as="geometry" />
        </mxCell>
        <mxCell id="nlKJqJRV2709YRwV2URC-104" value="" style="shape=tableRow;horizontal=0;startSize=0;swimlaneHead=0;swimlaneBody=0;fillColor=none;collapsible=0;dropTarget=0;points=[[0,0.5],[1,0.5]];portConstraint=eastwest;top=0;left=0;right=0;bottom=1;" vertex="1" parent="nlKJqJRV2709YRwV2URC-103">
          <mxGeometry y="30" width="180" height="30" as="geometry" />
        </mxCell>
        <mxCell id="nlKJqJRV2709YRwV2URC-105" value="PK" style="shape=partialRectangle;connectable=0;fillColor=default;top=0;left=0;bottom=0;right=0;fontStyle=1;overflow=hidden;whiteSpace=wrap;html=1;" vertex="1" parent="nlKJqJRV2709YRwV2URC-104">
          <mxGeometry width="30" height="30" as="geometry">
            <mxRectangle width="30" height="30" as="alternateBounds" />
          </mxGeometry>
        </mxCell>
        <mxCell id="nlKJqJRV2709YRwV2URC-106" value="date_id" style="shape=partialRectangle;connectable=0;fillColor=default;top=0;left=0;bottom=0;right=0;align=left;spacingLeft=6;fontStyle=5;overflow=hidden;whiteSpace=wrap;html=1;" vertex="1" parent="nlKJqJRV2709YRwV2URC-104">
          <mxGeometry x="30" width="150" height="30" as="geometry">
            <mxRectangle width="150" height="30" as="alternateBounds" />
          </mxGeometry>
        </mxCell>
        <mxCell id="nlKJqJRV2709YRwV2URC-107" value="" style="shape=tableRow;horizontal=0;startSize=0;swimlaneHead=0;swimlaneBody=0;fillColor=none;collapsible=0;dropTarget=0;points=[[0,0.5],[1,0.5]];portConstraint=eastwest;top=0;left=0;right=0;bottom=0;" vertex="1" parent="nlKJqJRV2709YRwV2URC-103">
          <mxGeometry y="60" width="180" height="30" as="geometry" />
        </mxCell>
        <mxCell id="nlKJqJRV2709YRwV2URC-108" value="" style="shape=partialRectangle;connectable=0;fillColor=default;top=0;left=0;bottom=0;right=0;editable=1;overflow=hidden;whiteSpace=wrap;html=1;" vertex="1" parent="nlKJqJRV2709YRwV2URC-107">
          <mxGeometry width="30" height="30" as="geometry">
            <mxRectangle width="30" height="30" as="alternateBounds" />
          </mxGeometry>
        </mxCell>
        <mxCell id="nlKJqJRV2709YRwV2URC-109" value="day&lt;span style=&quot;white-space: pre;&quot;&gt;&#x9;&lt;/span&gt;&lt;span style=&quot;white-space: pre;&quot;&gt;&#x9;&lt;/span&gt;int" style="shape=partialRectangle;connectable=0;fillColor=default;top=0;left=0;bottom=0;right=0;align=left;spacingLeft=6;overflow=hidden;whiteSpace=wrap;html=1;" vertex="1" parent="nlKJqJRV2709YRwV2URC-107">
          <mxGeometry x="30" width="150" height="30" as="geometry">
            <mxRectangle width="150" height="30" as="alternateBounds" />
          </mxGeometry>
        </mxCell>
        <mxCell id="nlKJqJRV2709YRwV2URC-110" value="" style="shape=tableRow;horizontal=0;startSize=0;swimlaneHead=0;swimlaneBody=0;fillColor=none;collapsible=0;dropTarget=0;points=[[0,0.5],[1,0.5]];portConstraint=eastwest;top=0;left=0;right=0;bottom=0;" vertex="1" parent="nlKJqJRV2709YRwV2URC-103">
          <mxGeometry y="90" width="180" height="30" as="geometry" />
        </mxCell>
        <mxCell id="nlKJqJRV2709YRwV2URC-111" value="" style="shape=partialRectangle;connectable=0;fillColor=default;top=0;left=0;bottom=0;right=0;editable=1;overflow=hidden;whiteSpace=wrap;html=1;" vertex="1" parent="nlKJqJRV2709YRwV2URC-110">
          <mxGeometry width="30" height="30" as="geometry">
            <mxRectangle width="30" height="30" as="alternateBounds" />
          </mxGeometry>
        </mxCell>
        <mxCell id="nlKJqJRV2709YRwV2URC-112" value="month&lt;span style=&quot;white-space: pre;&quot;&gt;&#x9;&lt;/span&gt;string" style="shape=partialRectangle;connectable=0;fillColor=default;top=0;left=0;bottom=0;right=0;align=left;spacingLeft=6;overflow=hidden;whiteSpace=wrap;html=1;" vertex="1" parent="nlKJqJRV2709YRwV2URC-110">
          <mxGeometry x="30" width="150" height="30" as="geometry">
            <mxRectangle width="150" height="30" as="alternateBounds" />
          </mxGeometry>
        </mxCell>
        <mxCell id="nlKJqJRV2709YRwV2URC-113" value="" style="shape=tableRow;horizontal=0;startSize=0;swimlaneHead=0;swimlaneBody=0;fillColor=none;collapsible=0;dropTarget=0;points=[[0,0.5],[1,0.5]];portConstraint=eastwest;top=0;left=0;right=0;bottom=0;" vertex="1" parent="nlKJqJRV2709YRwV2URC-103">
          <mxGeometry y="120" width="180" height="30" as="geometry" />
        </mxCell>
        <mxCell id="nlKJqJRV2709YRwV2URC-114" value="" style="shape=partialRectangle;connectable=0;fillColor=default;top=0;left=0;bottom=0;right=0;editable=1;overflow=hidden;whiteSpace=wrap;html=1;" vertex="1" parent="nlKJqJRV2709YRwV2URC-113">
          <mxGeometry width="30" height="30" as="geometry">
            <mxRectangle width="30" height="30" as="alternateBounds" />
          </mxGeometry>
        </mxCell>
        <mxCell id="nlKJqJRV2709YRwV2URC-115" value="quarter&lt;span style=&quot;white-space: pre;&quot;&gt;&#x9;&lt;/span&gt;string" style="shape=partialRectangle;connectable=0;fillColor=default;top=0;left=0;bottom=0;right=0;align=left;spacingLeft=6;overflow=hidden;whiteSpace=wrap;html=1;" vertex="1" parent="nlKJqJRV2709YRwV2URC-113">
          <mxGeometry x="30" width="150" height="30" as="geometry">
            <mxRectangle width="150" height="30" as="alternateBounds" />
          </mxGeometry>
        </mxCell>
        <mxCell id="nlKJqJRV2709YRwV2URC-116" value="" style="shape=partialRectangle;connectable=0;fillColor=default;top=0;left=0;bottom=0;right=0;editable=1;overflow=hidden;whiteSpace=wrap;html=1;" vertex="1" parent="1">
          <mxGeometry x="139" y="195" width="30" height="30" as="geometry">
            <mxRectangle width="30" height="30" as="alternateBounds" />
          </mxGeometry>
        </mxCell>
        <mxCell id="nlKJqJRV2709YRwV2URC-117" value="year&lt;span style=&quot;white-space: pre;&quot;&gt;&#x9;&lt;/span&gt;&lt;span style=&quot;white-space: pre;&quot;&gt;&#x9;&lt;/span&gt;int" style="shape=partialRectangle;connectable=0;fillColor=default;top=0;left=0;bottom=0;right=0;align=left;spacingLeft=6;overflow=hidden;whiteSpace=wrap;html=1;" vertex="1" parent="1">
          <mxGeometry x="169" y="195" width="150" height="30" as="geometry">
            <mxRectangle width="150" height="30" as="alternateBounds" />
          </mxGeometry>
        </mxCell>
        <mxCell id="nlKJqJRV2709YRwV2URC-118" value="" style="shape=partialRectangle;connectable=0;fillColor=default;top=0;left=0;bottom=0;right=0;editable=1;overflow=hidden;whiteSpace=wrap;html=1;" vertex="1" parent="1">
          <mxGeometry x="139" y="225" width="30" height="30" as="geometry">
            <mxRectangle width="30" height="30" as="alternateBounds" />
          </mxGeometry>
        </mxCell>
        <mxCell id="nlKJqJRV2709YRwV2URC-119" value="is_holday&lt;span style=&quot;white-space: pre;&quot;&gt;&#x9;&lt;/span&gt;bit" style="shape=partialRectangle;connectable=0;fillColor=default;top=0;left=0;bottom=0;right=0;align=left;spacingLeft=6;overflow=hidden;whiteSpace=wrap;html=1;" vertex="1" parent="1">
          <mxGeometry x="169" y="225" width="150" height="30" as="geometry">
            <mxRectangle width="150" height="30" as="alternateBounds" />
          </mxGeometry>
        </mxCell>
        <mxCell id="nlKJqJRV2709YRwV2URC-120" value="&lt;span style=&quot;font-size: 16px;&quot;&gt;&lt;b&gt;This joins to all date fields.&lt;/b&gt;&lt;/span&gt;" style="rounded=1;whiteSpace=wrap;html=1;" vertex="1" parent="1">
          <mxGeometry x="139" y="-22" width="182" height="53" as="geometry" />
        </mxCell>
        <mxCell id="nlKJqJRV2709YRwV2URC-121" value="dim_user" style="shape=table;startSize=30;container=1;collapsible=1;childLayout=tableLayout;fixedRows=1;rowLines=0;fontStyle=1;align=center;resizeLast=1;html=1;" vertex="1" parent="1">
          <mxGeometry x="379" y="63" width="180" height="270" as="geometry" />
        </mxCell>
        <mxCell id="nlKJqJRV2709YRwV2URC-122" value="" style="shape=tableRow;horizontal=0;startSize=0;swimlaneHead=0;swimlaneBody=0;fillColor=none;collapsible=0;dropTarget=0;points=[[0,0.5],[1,0.5]];portConstraint=eastwest;top=0;left=0;right=0;bottom=1;" vertex="1" parent="nlKJqJRV2709YRwV2URC-121">
          <mxGeometry y="30" width="180" height="30" as="geometry" />
        </mxCell>
        <mxCell id="nlKJqJRV2709YRwV2URC-123" value="PK" style="shape=partialRectangle;connectable=0;fillColor=default;top=0;left=0;bottom=0;right=0;fontStyle=1;overflow=hidden;whiteSpace=wrap;html=1;" vertex="1" parent="nlKJqJRV2709YRwV2URC-122">
          <mxGeometry width="30" height="30" as="geometry">
            <mxRectangle width="30" height="30" as="alternateBounds" />
          </mxGeometry>
        </mxCell>
        <mxCell id="nlKJqJRV2709YRwV2URC-124" value="user_id" style="shape=partialRectangle;connectable=0;fillColor=default;top=0;left=0;bottom=0;right=0;align=left;spacingLeft=6;fontStyle=5;overflow=hidden;whiteSpace=wrap;html=1;" vertex="1" parent="nlKJqJRV2709YRwV2URC-122">
          <mxGeometry x="30" width="150" height="30" as="geometry">
            <mxRectangle width="150" height="30" as="alternateBounds" />
          </mxGeometry>
        </mxCell>
        <mxCell id="nlKJqJRV2709YRwV2URC-125" value="" style="shape=tableRow;horizontal=0;startSize=0;swimlaneHead=0;swimlaneBody=0;fillColor=none;collapsible=0;dropTarget=0;points=[[0,0.5],[1,0.5]];portConstraint=eastwest;top=0;left=0;right=0;bottom=0;" vertex="1" parent="nlKJqJRV2709YRwV2URC-121">
          <mxGeometry y="60" width="180" height="30" as="geometry" />
        </mxCell>
        <mxCell id="nlKJqJRV2709YRwV2URC-126" value="" style="shape=partialRectangle;connectable=0;fillColor=default;top=0;left=0;bottom=0;right=0;editable=1;overflow=hidden;whiteSpace=wrap;html=1;" vertex="1" parent="nlKJqJRV2709YRwV2URC-125">
          <mxGeometry width="30" height="30" as="geometry">
            <mxRectangle width="30" height="30" as="alternateBounds" />
          </mxGeometry>
        </mxCell>
        <mxCell id="nlKJqJRV2709YRwV2URC-127" value="role&lt;span style=&quot;white-space: pre;&quot;&gt;&#x9;&lt;/span&gt;&lt;span style=&quot;white-space: pre;&quot;&gt;&#x9;&lt;span style=&quot;white-space: pre;&quot;&gt;&#x9;&lt;/span&gt;&lt;/span&gt;string" style="shape=partialRectangle;connectable=0;fillColor=default;top=0;left=0;bottom=0;right=0;align=left;spacingLeft=6;overflow=hidden;whiteSpace=wrap;html=1;" vertex="1" parent="nlKJqJRV2709YRwV2URC-125">
          <mxGeometry x="30" width="150" height="30" as="geometry">
            <mxRectangle width="150" height="30" as="alternateBounds" />
          </mxGeometry>
        </mxCell>
        <mxCell id="nlKJqJRV2709YRwV2URC-128" value="" style="shape=tableRow;horizontal=0;startSize=0;swimlaneHead=0;swimlaneBody=0;fillColor=none;collapsible=0;dropTarget=0;points=[[0,0.5],[1,0.5]];portConstraint=eastwest;top=0;left=0;right=0;bottom=0;" vertex="1" parent="nlKJqJRV2709YRwV2URC-121">
          <mxGeometry y="90" width="180" height="30" as="geometry" />
        </mxCell>
        <mxCell id="nlKJqJRV2709YRwV2URC-129" value="" style="shape=partialRectangle;connectable=0;fillColor=default;top=0;left=0;bottom=0;right=0;editable=1;overflow=hidden;whiteSpace=wrap;html=1;" vertex="1" parent="nlKJqJRV2709YRwV2URC-128">
          <mxGeometry width="30" height="30" as="geometry">
            <mxRectangle width="30" height="30" as="alternateBounds" />
          </mxGeometry>
        </mxCell>
        <mxCell id="nlKJqJRV2709YRwV2URC-130" value="signup_source&lt;span style=&quot;white-space: pre;&quot;&gt;&#x9;&lt;/span&gt;string" style="shape=partialRectangle;connectable=0;fillColor=default;top=0;left=0;bottom=0;right=0;align=left;spacingLeft=6;overflow=hidden;whiteSpace=wrap;html=1;" vertex="1" parent="nlKJqJRV2709YRwV2URC-128">
          <mxGeometry x="30" width="150" height="30" as="geometry">
            <mxRectangle width="150" height="30" as="alternateBounds" />
          </mxGeometry>
        </mxCell>
        <mxCell id="nlKJqJRV2709YRwV2URC-131" value="" style="shape=tableRow;horizontal=0;startSize=0;swimlaneHead=0;swimlaneBody=0;fillColor=none;collapsible=0;dropTarget=0;points=[[0,0.5],[1,0.5]];portConstraint=eastwest;top=0;left=0;right=0;bottom=0;" vertex="1" parent="nlKJqJRV2709YRwV2URC-121">
          <mxGeometry y="120" width="180" height="30" as="geometry" />
        </mxCell>
        <mxCell id="nlKJqJRV2709YRwV2URC-132" value="" style="shape=partialRectangle;connectable=0;fillColor=default;top=0;left=0;bottom=0;right=0;editable=1;overflow=hidden;whiteSpace=wrap;html=1;" vertex="1" parent="nlKJqJRV2709YRwV2URC-131">
          <mxGeometry width="30" height="30" as="geometry">
            <mxRectangle width="30" height="30" as="alternateBounds" />
          </mxGeometry>
        </mxCell>
        <mxCell id="nlKJqJRV2709YRwV2URC-133" value="is_active&lt;span style=&quot;white-space: pre;&quot;&gt;&#x9;&lt;/span&gt;&lt;span style=&quot;white-space: pre;&quot;&gt;&#x9;&lt;/span&gt;bool" style="shape=partialRectangle;connectable=0;fillColor=default;top=0;left=0;bottom=0;right=0;align=left;spacingLeft=6;overflow=hidden;whiteSpace=wrap;html=1;" vertex="1" parent="nlKJqJRV2709YRwV2URC-131">
          <mxGeometry x="30" width="150" height="30" as="geometry">
            <mxRectangle width="150" height="30" as="alternateBounds" />
          </mxGeometry>
        </mxCell>
        <mxCell id="nlKJqJRV2709YRwV2URC-134" value="" style="shape=tableRow;horizontal=0;startSize=0;swimlaneHead=0;swimlaneBody=0;fillColor=none;collapsible=0;dropTarget=0;points=[[0,0.5],[1,0.5]];portConstraint=eastwest;top=0;left=0;right=0;bottom=0;" vertex="1" parent="1">
          <mxGeometry x="378" y="214" width="180" height="30" as="geometry" />
        </mxCell>
        <mxCell id="nlKJqJRV2709YRwV2URC-135" value="FK" style="shape=partialRectangle;connectable=0;fillColor=default;top=0;left=0;bottom=0;right=0;editable=1;overflow=hidden;whiteSpace=wrap;html=1;" vertex="1" parent="nlKJqJRV2709YRwV2URC-134">
          <mxGeometry width="30" height="30" as="geometry">
            <mxRectangle width="30" height="30" as="alternateBounds" />
          </mxGeometry>
        </mxCell>
        <mxCell id="nlKJqJRV2709YRwV2URC-136" value="created_date&lt;span style=&quot;white-space: pre;&quot;&gt;&#x9;&lt;/span&gt;int" style="shape=partialRectangle;connectable=0;fillColor=default;top=0;left=0;bottom=0;right=0;align=left;spacingLeft=6;overflow=hidden;whiteSpace=wrap;html=1;" vertex="1" parent="nlKJqJRV2709YRwV2URC-134">
          <mxGeometry x="30" width="150" height="30" as="geometry">
            <mxRectangle width="150" height="30" as="alternateBounds" />
          </mxGeometry>
        </mxCell>
        <mxCell id="nlKJqJRV2709YRwV2URC-137" value="" style="shape=tableRow;horizontal=0;startSize=0;swimlaneHead=0;swimlaneBody=0;fillColor=none;collapsible=0;dropTarget=0;points=[[0,0.5],[1,0.5]];portConstraint=eastwest;top=0;left=0;right=0;bottom=0;" vertex="1" parent="1">
          <mxGeometry x="379" y="245" width="180" height="30" as="geometry" />
        </mxCell>
        <mxCell id="nlKJqJRV2709YRwV2URC-138" value="FK" style="shape=partialRectangle;connectable=0;fillColor=default;top=0;left=0;bottom=0;right=0;editable=1;overflow=hidden;whiteSpace=wrap;html=1;" vertex="1" parent="nlKJqJRV2709YRwV2URC-137">
          <mxGeometry width="30" height="30" as="geometry">
            <mxRectangle width="30" height="30" as="alternateBounds" />
          </mxGeometry>
        </mxCell>
        <mxCell id="nlKJqJRV2709YRwV2URC-139" value="last_login&lt;span style=&quot;white-space: pre;&quot;&gt;&#x9;&lt;/span&gt;&lt;span style=&quot;white-space: pre;&quot;&gt;&#x9;&lt;/span&gt;int" style="shape=partialRectangle;connectable=0;fillColor=default;top=0;left=0;bottom=0;right=0;align=left;spacingLeft=6;overflow=hidden;whiteSpace=wrap;html=1;" vertex="1" parent="nlKJqJRV2709YRwV2URC-137">
          <mxGeometry x="30" width="150" height="30" as="geometry">
            <mxRectangle width="150" height="30" as="alternateBounds" />
          </mxGeometry>
        </mxCell>
        <mxCell id="nlKJqJRV2709YRwV2URC-140" value="" style="shape=tableRow;horizontal=0;startSize=0;swimlaneHead=0;swimlaneBody=0;fillColor=none;collapsible=0;dropTarget=0;points=[[0,0.5],[1,0.5]];portConstraint=eastwest;top=0;left=0;right=0;bottom=0;" vertex="1" parent="1">
          <mxGeometry x="379" y="276" width="180" height="30" as="geometry" />
        </mxCell>
        <mxCell id="nlKJqJRV2709YRwV2URC-141" value="FK" style="shape=partialRectangle;connectable=0;fillColor=default;top=0;left=0;bottom=0;right=0;editable=1;overflow=hidden;whiteSpace=wrap;html=1;" vertex="1" parent="nlKJqJRV2709YRwV2URC-140">
          <mxGeometry width="30" height="30" as="geometry">
            <mxRectangle width="30" height="30" as="alternateBounds" />
          </mxGeometry>
        </mxCell>
        <mxCell id="nlKJqJRV2709YRwV2URC-142" value="record_create_date" style="shape=partialRectangle;connectable=0;fillColor=default;top=0;left=0;bottom=0;right=0;align=left;spacingLeft=6;overflow=hidden;whiteSpace=wrap;html=1;" vertex="1" parent="nlKJqJRV2709YRwV2URC-140">
          <mxGeometry x="30" width="150" height="30" as="geometry">
            <mxRectangle width="150" height="30" as="alternateBounds" />
          </mxGeometry>
        </mxCell>
        <mxCell id="nlKJqJRV2709YRwV2URC-143" value="FK" style="shape=partialRectangle;connectable=0;fillColor=default;top=0;left=0;bottom=0;right=0;editable=1;overflow=hidden;whiteSpace=wrap;html=1;" vertex="1" parent="1">
          <mxGeometry x="379" y="303" width="30" height="30" as="geometry">
            <mxRectangle width="30" height="30" as="alternateBounds" />
          </mxGeometry>
        </mxCell>
        <mxCell id="nlKJqJRV2709YRwV2URC-144" value="record_end_date" style="shape=partialRectangle;connectable=0;fillColor=default;top=0;left=0;bottom=0;right=0;align=left;spacingLeft=6;overflow=hidden;whiteSpace=wrap;html=1;" vertex="1" parent="1">
          <mxGeometry x="409" y="303" width="150" height="30" as="geometry">
            <mxRectangle width="150" height="30" as="alternateBounds" />
          </mxGeometry>
        </mxCell>
        <mxCell id="nlKJqJRV2709YRwV2URC-145" style="edgeStyle=orthogonalEdgeStyle;rounded=0;orthogonalLoop=1;jettySize=auto;html=1;entryX=0;entryY=0.5;entryDx=0;entryDy=0;" edge="1" parent="1" source="nlKJqJRV2709YRwV2URC-122" target="nlKJqJRV2709YRwV2URC-6">
          <mxGeometry relative="1" as="geometry" />
        </mxCell>
      </root>
    </mxGraphModel>
  </diagram>
</mxfile>
